{"glyphs":{"0":{"ha":766,"x_min":61,"x_max":704,"o":"m 385 960 q 620 830 535 960 q 704 478 704 701 q 622 117 704 247 q 387 -12 540 -12 q 147 117 233 -12 q 61 473 61 245 q 148 832 61 704 q 385 960 235 960 m 385 165 q 467 234 441 165 q 493 493 493 303 q 468 716 493 651 q 383 782 442 782 q 299 718 326 782 q 272 464 272 654 q 299 235 272 304 q 385 165 326 165 z "},"1":{"ha":766,"x_min":275,"x_max":485,"o":"m 485 947 l 485 0 l 275 0 l 275 947 l 485 947 z "},"2":{"ha":766,"x_min":75,"x_max":701,"o":"m 701 193 l 701 0 l 75 0 l 75 26 q 272 293 161 132 q 412 522 383 454 q 441 653 441 589 q 405 749 441 709 q 315 789 368 789 q 87 671 212 789 l 87 869 q 353 960 227 960 q 573 888 492 960 q 653 690 653 816 q 396 193 653 519 l 701 193 z "},"3":{"ha":766,"x_min":81,"x_max":650,"o":"m 282 408 l 282 575 q 377 608 341 575 q 412 688 412 642 q 374 766 412 735 q 278 798 336 798 q 104 751 199 798 l 104 918 q 321 960 199 960 q 540 895 456 960 q 624 728 624 830 q 484 509 624 586 q 650 265 650 444 q 558 63 650 139 q 313 -12 467 -12 q 81 41 187 -12 l 81 225 q 281 150 188 150 q 388 185 347 150 q 429 275 429 220 q 390 368 429 331 q 282 408 350 406 z "},"4":{"ha":766,"x_min":57,"x_max":700,"o":"m 636 960 l 636 385 l 700 385 l 700 233 l 636 233 l 636 0 l 427 0 l 427 233 l 57 233 l 57 385 l 503 960 l 636 960 m 224 385 l 427 385 l 427 643 l 224 385 z "},"5":{"ha":766,"x_min":89,"x_max":661,"o":"m 629 947 l 629 757 l 326 757 l 326 581 q 570 505 478 591 q 661 289 661 420 q 568 70 661 152 q 318 -12 475 -12 q 89 39 180 -12 l 89 211 q 290 150 198 150 q 398 188 355 150 q 440 282 440 225 q 389 382 440 345 q 245 418 337 418 q 138 407 195 418 l 138 947 l 629 947 z "},"6":{"ha":766,"x_min":61,"x_max":689,"o":"m 587 960 l 368 602 q 431 610 399 610 q 613 528 538 610 q 689 311 689 446 q 600 80 689 172 q 375 -12 510 -12 q 149 81 236 -12 q 61 323 61 174 q 191 694 61 486 l 354 960 l 587 960 m 379 165 q 457 203 428 165 q 486 306 486 241 q 456 408 486 370 q 378 447 427 447 q 300 408 329 447 q 272 302 272 370 q 300 201 272 237 q 379 165 329 165 z "},"7":{"ha":766,"x_min":89,"x_max":715,"o":"m 184 60 l 439 758 l 89 758 l 89 947 l 715 947 l 715 936 l 374 -12 l 184 60 z "},"8":{"ha":766,"x_min":66,"x_max":701,"o":"m 210 500 q 93 703 93 573 q 172 889 93 818 q 380 960 252 960 q 595 884 516 960 q 675 701 675 808 q 559 500 675 569 q 701 271 701 427 q 614 65 701 143 q 382 -12 527 -12 q 154 66 242 -12 q 66 269 66 145 q 210 500 66 434 m 386 558 q 449 594 427 558 q 472 694 472 631 q 383 821 472 821 q 319 786 343 821 q 296 692 296 752 q 320 594 296 630 q 386 558 345 558 m 386 126 q 461 166 433 126 q 490 272 490 205 q 461 383 490 342 q 385 424 433 424 q 307 384 336 424 q 278 278 278 345 q 308 168 278 209 q 386 126 338 126 z "},"9":{"ha":766,"x_min":69,"x_max":697,"o":"m 174 -12 l 392 343 q 328 334 359 334 q 145 421 222 334 q 69 632 69 509 q 160 865 69 771 q 385 960 251 960 q 608 865 519 960 q 697 629 697 771 q 572 258 697 461 l 406 -12 l 174 -12 m 380 496 q 456 536 426 496 q 486 637 486 576 q 458 743 486 705 q 380 782 429 782 q 303 742 334 782 q 272 639 272 701 q 302 535 272 575 q 380 496 332 496 z "}," ":{"ha":386,"x_min":0,"x_max":0,"o":""},"!":{"ha":376,"x_min":68,"x_max":310,"o":"m 304 810 q 272 529 304 715 q 228 314 240 342 q 189 286 216 286 q 151 310 161 286 q 106 509 140 333 q 72 810 72 686 q 189 960 72 960 q 304 810 304 960 m 68 109 q 103 194 68 158 q 189 229 139 229 q 274 194 239 229 q 310 109 310 158 q 274 23 310 58 q 189 -12 239 -12 q 103 23 139 -12 q 68 109 68 58 z "},"\"":{"ha":665,"x_min":74,"x_max":591,"o":"m 558 640 l 437 640 l 404 827 l 404 994 l 591 994 l 591 827 l 558 640 m 74 994 l 261 994 l 261 827 l 228 640 l 107 640 l 74 827 l 74 994 z "},"#":{"ha":811,"x_min":-8,"x_max":821,"o":"m -8 696 l 193 696 l 245 947 l 403 947 l 350 696 l 564 696 l 616 947 l 771 947 l 718 696 l 821 696 l 821 544 l 688 544 l 650 362 l 821 362 l 821 211 l 616 211 l 564 -41 l 410 -41 l 461 211 l 249 211 l 197 -41 l 39 -41 l 92 211 l -8 211 l -8 362 l 123 362 l 161 544 l -8 544 l -8 696 m 318 544 l 281 362 l 493 362 l 530 544 l 318 544 z "},"$":{"ha":753,"x_min":62,"x_max":697,"o":"m 648 839 l 648 668 q 432 760 549 744 l 432 534 q 628 418 559 495 q 697 253 697 341 q 628 81 697 151 q 432 -12 559 10 l 432 -165 l 315 -165 l 315 -12 q 72 83 190 7 l 72 248 q 315 131 199 151 l 315 397 q 62 663 62 456 q 131 827 62 758 q 315 909 199 896 l 315 960 l 432 960 l 432 909 q 648 839 532 905 m 315 576 l 315 760 q 222 671 222 736 q 315 576 222 606 m 432 361 l 432 134 q 539 243 539 158 q 432 361 539 323 z "},"%":{"ha":999,"x_min":33,"x_max":964,"o":"m 257 960 q 415 895 349 960 q 481 736 481 829 q 415 578 481 644 q 257 513 349 513 q 99 578 165 513 q 33 736 33 644 q 99 895 33 829 q 257 960 164 960 m 257 632 q 327 662 298 632 q 355 736 355 692 q 326 809 355 779 q 257 840 297 840 q 186 810 215 840 q 158 736 158 781 q 188 663 158 694 q 257 632 217 632 m 886 960 l 224 -11 l 109 -11 l 775 960 l 886 960 m 741 435 q 898 369 833 435 q 964 211 964 304 q 898 54 964 119 q 741 -12 832 -12 q 583 54 648 -12 q 517 211 517 119 q 582 369 517 304 q 741 435 648 435 m 741 107 q 810 137 782 107 q 839 211 839 168 q 810 284 839 254 q 741 315 781 315 q 670 286 699 315 q 642 211 642 256 q 671 138 642 170 q 741 107 701 107 z "},"&":{"ha":1042,"x_min":54,"x_max":1008,"o":"m 806 492 l 1008 492 q 818 208 928 304 l 1008 0 l 721 0 l 652 75 q 354 -12 514 -12 q 140 59 225 -12 q 54 237 54 131 q 267 505 54 397 q 180 715 180 623 q 262 890 180 821 q 471 960 345 960 q 668 896 591 960 q 745 734 745 833 q 568 492 745 596 l 697 343 q 806 492 758 404 m 465 604 q 559 724 559 659 q 535 781 559 758 q 472 803 511 803 q 409 782 434 803 q 385 730 385 762 q 465 604 385 676 m 542 197 l 374 383 q 277 256 277 321 q 312 177 277 210 q 396 144 347 144 q 542 197 465 144 z "},"'":{"ha":334,"x_min":74,"x_max":261,"o":"m 228 640 l 107 640 l 74 827 l 74 994 l 261 994 l 261 827 l 228 640 z "},"(":{"ha":534,"x_min":62,"x_max":526,"o":"m 526 960 q 279 321 279 688 q 526 -319 279 -42 l 383 -319 q 148 -26 233 -199 q 62 321 62 146 q 148 668 62 495 q 383 960 234 842 l 526 960 z "},")":{"ha":534,"x_min":8,"x_max":472,"o":"m 8 -319 q 256 321 256 -41 q 8 960 256 688 l 151 960 q 386 668 300 842 q 472 321 472 495 q 387 -25 472 146 q 151 -319 302 -197 l 8 -319 z "},"*":{"ha":652,"x_min":41,"x_max":622,"o":"m 412 418 q 416 396 416 406 q 376 367 416 367 l 291 367 q 248 395 248 367 q 252 418 248 405 l 313 615 l 296 631 l 159 489 q 114 458 128 458 q 90 481 102 458 l 51 554 q 42 584 42 571 q 71 615 42 609 l 283 661 l 283 664 l 71 711 q 41 743 41 719 q 47 766 41 755 l 90 846 q 113 870 102 870 q 159 838 127 870 l 296 696 l 313 711 l 252 908 q 248 930 248 921 q 291 960 248 960 l 372 960 q 416 931 416 960 q 412 908 416 922 l 351 711 l 367 696 l 505 838 q 548 869 536 869 q 574 842 559 869 l 609 779 q 622 740 622 755 q 592 711 622 718 l 381 664 l 381 661 l 592 615 q 622 584 622 609 q 612 551 622 570 l 576 486 q 547 456 559 456 q 516 478 536 456 l 367 631 l 351 615 l 412 418 z "},"+":{"ha":811,"x_min":58,"x_max":753,"o":"m 58 401 l 58 579 l 317 579 l 317 838 l 494 838 l 494 579 l 753 579 l 753 401 l 494 401 l 494 143 l 317 143 l 317 401 l 58 401 z "},",":{"ha":376,"x_min":61,"x_max":314,"o":"m 69 -235 l 69 -192 q 134 -35 134 -130 q 132 -12 134 -24 q 61 89 61 15 q 94 168 61 136 q 175 199 126 199 q 275 154 236 199 q 314 40 314 110 q 245 -141 314 -60 q 69 -235 176 -222 z "},"-":{"ha":463,"x_min":50,"x_max":412,"o":"m 412 414 l 412 229 l 50 229 l 50 414 l 412 414 z "},".":{"ha":376,"x_min":66,"x_max":309,"o":"m 66 109 q 102 194 66 158 q 187 229 138 229 q 273 194 237 229 q 309 109 309 158 q 273 23 309 58 q 187 -12 237 -12 q 102 23 138 -12 q 66 109 66 58 z "},"/":{"ha":390,"x_min":0,"x_max":378,"o":"m 0 -12 l 235 960 l 378 960 l 140 -12 l 0 -12 z "},":":{"ha":376,"x_min":66,"x_max":309,"o":"m 66 519 q 102 605 66 569 q 187 640 138 640 q 273 605 237 640 q 309 519 309 569 q 273 434 309 470 q 187 399 237 399 q 102 434 138 399 q 66 519 66 470 m 66 109 q 102 194 66 158 q 187 229 138 229 q 273 194 237 229 q 309 109 309 158 q 273 23 309 58 q 187 -12 237 -12 q 102 23 138 -12 q 66 109 66 58 z "},";":{"ha":376,"x_min":61,"x_max":314,"o":"m 66 519 q 102 605 66 569 q 187 640 138 640 q 273 605 237 640 q 309 519 309 569 q 273 434 309 470 q 187 399 237 399 q 102 434 138 399 q 66 519 66 470 m 69 -235 l 69 -192 q 134 -35 134 -130 q 132 -12 134 -24 q 61 89 61 15 q 94 168 61 136 q 175 199 126 199 q 275 154 236 199 q 314 40 314 110 q 245 -141 314 -60 q 69 -235 176 -222 z "},"<":{"ha":811,"x_min":65,"x_max":747,"o":"m 65 410 l 65 576 l 747 872 l 747 682 l 271 493 l 747 304 l 747 114 l 65 410 z "},"=":{"ha":811,"x_min":58,"x_max":753,"o":"m 58 553 l 58 730 l 753 730 l 753 553 l 58 553 m 58 250 l 58 428 l 753 428 l 753 250 l 58 250 z "},">":{"ha":811,"x_min":64,"x_max":746,"o":"m 746 410 l 64 114 l 64 304 l 541 493 l 64 682 l 64 872 l 746 576 l 746 410 z "},"?":{"ha":521,"x_min":35,"x_max":460,"o":"m 35 761 l 69 932 q 231 960 149 960 q 398 907 336 960 q 460 765 460 854 q 441 660 460 714 q 355 522 422 605 q 274 399 289 439 q 258 323 258 359 l 258 307 q 250 289 258 292 q 215 285 241 285 q 179 296 190 285 q 155 355 169 307 q 140 440 140 403 q 204 625 140 516 q 249 739 249 701 q 167 810 249 810 q 47 761 105 810 l 35 761 m 98 109 q 134 194 98 158 q 220 229 170 229 q 305 194 269 229 q 340 109 340 158 q 305 23 340 58 q 220 -12 269 -12 q 134 23 170 -12 q 98 109 98 58 z "},"@":{"ha":1360,"x_min":41,"x_max":1350,"o":"m 1206 12 l 1350 12 q 1122 -214 1276 -136 q 754 -292 968 -292 q 247 -130 452 -292 q 41 319 41 31 q 225 808 41 606 q 737 1011 408 1011 q 1154 867 994 1011 q 1314 493 1314 723 q 1184 149 1314 298 q 865 0 1055 0 q 742 78 760 0 q 558 0 664 0 q 370 79 444 0 q 297 285 297 159 q 400 594 297 454 q 661 734 503 734 q 843 643 784 734 l 860 718 l 1039 718 l 930 204 q 927 174 927 186 q 953 139 927 139 q 1104 248 1017 139 q 1192 496 1192 357 q 1071 776 1192 663 q 726 889 950 889 q 312 724 460 889 q 164 321 164 558 q 323 -39 164 92 q 737 -170 482 -170 q 1206 12 1062 -170 m 679 612 q 530 512 587 612 q 472 282 472 412 q 506 167 472 210 q 595 123 540 123 q 748 234 691 123 q 806 454 806 345 q 771 570 806 527 q 679 612 736 612 z "},"A":{"ha":1084,"x_min":4,"x_max":1080,"o":"m 660 947 l 1080 0 l 827 0 l 749 187 l 325 187 l 254 0 l 4 0 l 386 947 l 660 947 m 679 353 l 526 721 l 387 353 l 679 353 z "},"B":{"ha":970,"x_min":106,"x_max":901,"o":"m 106 947 l 515 947 q 746 877 662 947 q 829 710 829 806 q 700 521 829 587 q 849 430 798 495 q 901 278 901 365 q 817 77 901 155 q 567 0 732 0 l 106 0 l 106 947 m 342 774 l 342 571 l 465 571 q 554 600 522 571 q 586 673 586 629 q 554 745 586 717 q 465 774 522 774 l 342 774 m 342 397 l 342 174 l 475 174 q 610 200 569 174 q 652 290 652 226 q 612 369 652 340 q 507 397 573 397 l 342 397 z "},"C":{"ha":1071,"x_min":65,"x_max":989,"o":"m 989 289 l 989 82 q 616 -12 811 -12 q 215 127 364 -12 q 65 471 65 267 q 223 817 65 675 q 635 960 380 960 q 978 876 838 960 l 978 665 q 652 762 806 762 q 405 681 500 762 q 309 475 309 600 q 403 267 309 349 q 646 184 498 184 q 787 204 719 184 q 989 289 854 223 z "},"D":{"ha":1114,"x_min":104,"x_max":1046,"o":"m 104 947 l 522 947 q 905 815 764 947 q 1046 472 1046 682 q 903 126 1046 252 q 496 0 760 0 l 104 0 l 104 947 m 340 774 l 340 174 l 494 174 q 724 256 644 174 q 803 473 803 338 q 723 693 803 613 q 492 774 642 774 l 340 774 z "},"E":{"ha":882,"x_min":109,"x_max":807,"o":"m 807 174 l 807 0 l 109 0 l 109 947 l 798 947 l 798 774 l 345 774 l 345 575 l 777 575 l 777 401 l 345 401 l 345 174 l 807 174 z "},"F":{"ha":839,"x_min":106,"x_max":758,"o":"m 758 947 l 758 774 l 342 774 l 342 562 l 758 562 l 758 389 l 342 389 l 342 0 l 106 0 l 106 947 l 758 947 z "},"G":{"ha":1129,"x_min":65,"x_max":1029,"o":"m 1010 882 l 1010 675 q 656 762 829 762 q 399 678 489 762 q 309 464 309 594 q 399 262 309 339 q 636 184 489 184 q 793 218 714 184 l 793 329 l 656 329 l 656 503 l 1029 503 l 1029 115 q 858 23 973 59 q 631 -12 743 -12 q 224 124 383 -12 q 65 472 65 261 q 224 824 65 688 q 636 960 383 960 q 1010 882 845 960 z "},"H":{"ha":1157,"x_min":107,"x_max":1051,"o":"m 1051 947 l 1051 0 l 815 0 l 815 383 l 343 383 l 343 0 l 107 0 l 107 947 l 343 947 l 343 567 l 815 567 l 815 947 l 1051 947 z "},"I":{"ha":463,"x_min":114,"x_max":350,"o":"m 350 947 l 350 0 l 114 0 l 114 947 l 350 947 z "},"J":{"ha":463,"x_min":-45,"x_max":359,"o":"m 359 947 l 359 87 q 24 -277 359 -277 q -45 -273 -7 -277 l -45 -87 q -9 -91 -26 -91 q 123 83 123 -91 l 123 947 l 359 947 z "},"K":{"ha":999,"x_min":104,"x_max":1011,"o":"m 901 947 l 593 503 l 1011 0 l 715 0 l 340 444 l 340 0 l 104 0 l 104 947 l 340 947 l 340 521 l 642 947 l 901 947 z "},"L":{"ha":854,"x_min":106,"x_max":828,"o":"m 828 174 l 828 0 l 106 0 l 106 947 l 342 947 l 342 174 l 828 174 z "},"M":{"ha":1229,"x_min":106,"x_max":1125,"o":"m 615 596 l 920 947 l 1125 947 l 1125 0 l 889 0 l 889 591 l 633 294 l 597 294 l 342 591 l 342 0 l 106 0 l 106 947 l 311 947 l 615 596 z "},"N":{"ha":1173,"x_min":107,"x_max":1065,"o":"m 1065 947 l 1065 0 l 867 0 l 343 607 l 343 0 l 107 0 l 107 947 l 323 947 l 829 368 l 829 947 l 1065 947 z "},"O":{"ha":1215,"x_min":65,"x_max":1150,"o":"m 608 960 q 1000 813 850 960 q 1150 473 1150 667 q 998 132 1150 277 q 608 -12 846 -12 q 216 132 368 -12 q 65 473 65 275 q 215 814 65 668 q 608 960 366 960 m 608 184 q 825 264 743 184 q 907 473 907 344 q 825 683 907 604 q 608 762 743 762 q 391 683 473 762 q 309 473 309 604 q 391 264 309 344 q 608 184 473 184 z "},"P":{"ha":911,"x_min":115,"x_max":851,"o":"m 115 947 l 538 947 q 766 864 682 947 q 851 667 851 781 q 767 465 851 549 q 539 380 684 380 l 351 380 l 351 0 l 115 0 l 115 947 m 351 774 l 351 554 l 461 554 q 608 664 608 554 q 569 750 608 726 q 435 774 530 774 l 351 774 z "},"Q":{"ha":1215,"x_min":65,"x_max":1164,"o":"m 1149 -41 l 1164 -61 l 979 -218 q 822 -189 903 -213 q 667 -130 745 -167 q 519 -45 592 -94 q 390 18 465 -9 q 271 81 328 40 q 168 180 212 123 q 94 310 119 240 q 65 468 65 387 q 219 812 65 665 q 611 960 374 960 q 1002 812 852 960 q 1152 476 1152 665 q 1056 195 1152 323 q 799 16 961 66 q 1057 -55 922 -55 q 1149 -41 1109 -55 m 608 762 q 391 682 473 762 q 309 471 309 602 q 391 260 309 340 q 608 180 473 180 q 825 259 741 180 q 908 471 908 338 q 824 683 908 604 q 608 762 739 762 z "},"R":{"ha":940,"x_min":106,"x_max":936,"o":"m 106 947 l 529 947 q 753 868 667 947 q 839 675 839 788 q 676 443 839 518 q 812 269 748 411 q 936 0 876 126 l 676 0 q 596 178 653 47 q 497 347 538 310 q 410 385 456 385 l 342 385 l 342 0 l 106 0 l 106 947 m 342 774 l 342 558 l 467 558 q 561 586 526 558 q 596 667 596 614 q 461 774 596 774 l 342 774 z "},"S":{"ha":839,"x_min":66,"x_max":791,"o":"m 749 886 l 749 701 q 448 786 560 786 q 347 765 385 786 q 309 708 309 743 q 336 656 309 681 q 469 593 363 632 q 637 522 574 555 q 746 428 700 488 q 791 275 791 368 q 691 66 791 144 q 428 -12 591 -12 q 86 79 252 -12 l 86 283 q 254 191 181 220 q 410 161 328 161 q 549 249 549 161 q 521 305 549 279 q 387 370 493 332 q 219 440 281 408 q 112 533 157 473 q 66 688 66 593 q 165 885 66 810 q 428 960 263 960 q 749 886 580 960 z "},"T":{"ha":999,"x_min":39,"x_max":961,"o":"m 961 947 l 961 774 l 618 774 l 618 0 l 382 0 l 382 774 l 39 774 l 39 947 l 961 947 z "},"U":{"ha":1143,"x_min":97,"x_max":1044,"o":"m 808 947 l 1044 947 l 1044 410 q 922 95 1044 202 q 571 -12 799 -12 q 221 96 346 -12 q 97 408 97 205 l 97 947 l 334 947 l 334 403 q 398 244 334 304 q 568 184 463 184 q 743 245 677 184 q 808 419 808 307 l 808 947 z "},"V":{"ha":999,"x_min":0,"x_max":999,"o":"m 999 947 l 561 -12 l 458 -12 l 0 947 l 257 947 l 507 407 l 745 947 l 999 947 z "},"W":{"ha":1621,"x_min":-1,"x_max":1621,"o":"m 810 606 l 517 -12 l 415 -12 l -1 947 l 249 947 l 472 424 l 715 947 l 905 947 l 1149 424 l 1371 947 l 1621 947 l 1206 -12 l 1104 -12 l 810 606 z "},"X":{"ha":1129,"x_min":5,"x_max":1122,"o":"m 1082 947 l 711 490 l 1122 0 l 817 0 l 559 313 l 307 0 l 5 0 l 407 490 l 28 947 l 334 947 l 559 668 l 782 947 l 1082 947 z "},"Y":{"ha":983,"x_min":0,"x_max":983,"o":"m 374 0 l 374 443 l 0 947 l 286 947 l 492 650 l 699 947 l 983 947 l 610 443 l 610 0 l 374 0 z "},"Z":{"ha":970,"x_min":5,"x_max":925,"o":"m 925 947 l 408 174 l 925 174 l 925 0 l 5 0 l 526 774 l 41 774 l 41 947 l 925 947 z "},"[":{"ha":608,"x_min":117,"x_max":582,"o":"m 582 947 l 582 796 l 318 796 l 318 -155 l 582 -155 l 582 -307 l 117 -307 l 117 947 l 582 947 z "},"\\":{"ha":390,"x_min":9,"x_max":387,"o":"m 387 -12 l 248 -12 l 9 960 l 153 960 l 387 -12 z "},"]":{"ha":608,"x_min":26,"x_max":492,"o":"m 26 -307 l 26 -155 l 290 -155 l 290 796 l 26 796 l 26 947 l 492 947 l 492 -307 l 26 -307 z "},"^":{"ha":811,"x_min":78,"x_max":732,"o":"m 78 406 l 334 947 l 484 947 l 732 406 l 539 406 l 406 737 l 272 406 l 78 406 z "},"_":{"ha":694,"x_min":-8,"x_max":703,"o":"m -8 -104 l 703 -104 l 703 -174 l -8 -174 l -8 -104 z "},"`":{"ha":463,"x_min":11,"x_max":343,"o":"m 11 939 l 240 939 l 343 736 l 240 736 l 11 939 z "},"a":{"ha":737,"x_min":46,"x_max":737,"o":"m 737 158 l 737 46 q 549 -12 637 -12 q 436 60 454 -12 q 225 -12 331 -12 q 98 35 151 -12 q 46 144 46 82 q 100 279 46 228 q 427 411 154 330 q 315 518 433 518 q 79 411 187 518 l 79 575 q 357 653 205 653 q 628 458 628 653 l 628 167 q 661 122 628 122 q 737 158 686 122 m 427 155 l 427 310 q 288 247 326 275 q 250 175 250 218 q 269 127 250 147 q 315 107 288 107 q 427 155 372 107 z "},"b":{"ha":810,"x_min":81,"x_max":760,"o":"m 282 947 l 282 604 q 447 653 361 653 q 672 561 585 653 q 760 322 760 469 q 676 81 760 175 q 461 -12 592 -12 q 282 49 366 -12 l 282 0 l 81 0 l 81 947 l 282 947 m 282 473 l 282 176 q 401 122 343 122 q 514 176 473 122 q 555 325 555 230 q 512 468 555 417 q 399 518 469 518 q 282 473 344 518 z "},"c":{"ha":694,"x_min":56,"x_max":643,"o":"m 643 175 l 643 31 q 427 -12 525 -12 q 157 78 258 -12 q 56 318 56 169 q 158 558 56 464 q 418 653 260 653 q 633 611 519 653 l 633 461 q 469 504 550 504 q 325 454 379 504 q 271 319 271 404 q 323 183 271 235 q 463 131 376 131 q 643 175 526 131 z "},"d":{"ha":810,"x_min":49,"x_max":728,"o":"m 728 947 l 728 0 l 526 0 l 526 52 q 349 -12 449 -12 q 135 83 220 -12 q 49 321 49 178 q 136 560 49 467 q 359 653 223 653 q 526 612 444 653 l 526 947 l 728 947 m 526 175 l 526 481 q 414 518 471 518 q 295 465 338 518 q 253 317 253 412 q 295 175 253 229 q 407 122 337 122 q 526 175 469 122 z "},"e":{"ha":766,"x_min":52,"x_max":726,"o":"m 708 199 l 708 72 q 422 -12 593 -12 q 153 78 254 -12 q 52 318 52 169 q 146 559 52 465 q 389 653 241 653 q 631 554 536 653 q 720 288 726 454 l 260 288 q 321 154 266 201 q 471 107 377 107 q 708 199 584 107 m 264 393 l 542 393 q 403 533 526 533 q 264 393 279 533 z "},"f":{"ha":419,"x_min":21,"x_max":515,"o":"m 314 640 l 406 640 l 406 503 l 314 503 l 314 0 l 113 0 l 113 503 l 21 503 l 21 640 l 113 640 l 113 672 q 189 883 113 807 q 393 960 264 960 q 515 947 425 960 l 515 785 q 425 793 452 793 q 314 681 314 793 l 314 640 z "},"g":{"ha":753,"x_min":39,"x_max":736,"o":"m 736 640 l 736 505 l 644 505 q 676 399 676 451 q 621 261 676 324 q 456 186 565 198 q 333 164 347 174 q 318 136 318 153 q 337 109 318 119 q 487 87 356 98 q 668 19 617 76 q 720 -104 720 -39 q 632 -264 720 -210 q 380 -319 545 -319 q 125 -269 212 -319 q 39 -134 39 -218 q 210 29 39 -17 q 132 113 132 52 q 249 210 132 183 q 120 277 171 223 q 69 407 69 332 q 142 570 69 499 q 355 640 216 640 l 736 640 m 374 521 q 291 487 324 521 q 257 404 257 453 q 292 323 257 357 q 374 289 326 289 q 455 325 421 289 q 489 411 489 361 q 456 489 489 456 q 374 521 423 521 m 390 -200 q 494 -176 454 -200 q 534 -119 534 -153 q 378 -49 534 -49 q 266 -70 307 -49 q 225 -125 225 -90 q 390 -200 225 -200 z "},"h":{"ha":810,"x_min":86,"x_max":728,"o":"m 288 947 l 288 546 l 290 546 q 493 653 374 653 q 662 588 595 653 q 728 408 728 524 l 728 0 l 526 0 l 526 366 q 422 505 526 505 q 288 408 354 505 l 288 0 l 86 0 l 86 947 l 288 947 z "},"i":{"ha":376,"x_min":77,"x_max":298,"o":"m 77 848 q 109 927 77 895 q 187 960 142 960 q 266 927 233 960 q 298 848 298 895 q 266 770 298 803 q 187 737 233 737 q 109 770 142 737 q 77 848 77 803 m 289 640 l 289 0 l 87 0 l 87 640 l 289 640 z "},"j":{"ha":376,"x_min":-12,"x_max":302,"o":"m 81 848 q 113 927 81 895 q 192 960 146 960 q 270 927 237 960 q 302 848 302 895 q 270 770 302 803 q 192 737 237 737 q 113 770 146 737 q 81 848 81 803 m 293 640 l 293 -18 q 228 -229 293 -150 q 52 -319 162 -307 l -12 -138 q 92 31 92 -122 l 92 640 l 293 640 z "},"k":{"ha":766,"x_min":87,"x_max":787,"o":"m 289 947 l 289 323 l 292 323 l 541 640 l 777 640 l 526 323 l 787 0 l 541 0 l 292 315 l 289 315 l 289 0 l 87 0 l 87 947 l 289 947 z "},"l":{"ha":376,"x_min":87,"x_max":289,"o":"m 289 947 l 289 0 l 87 0 l 87 947 l 289 947 z "},"m":{"ha":1331,"x_min":87,"x_max":1244,"o":"m 289 640 l 289 558 q 511 653 391 653 q 742 517 676 653 q 994 653 858 653 q 1175 586 1105 653 q 1244 411 1244 519 l 1244 0 l 1043 0 l 1043 375 q 1012 480 1043 443 q 925 518 981 518 q 766 410 837 518 l 766 0 l 566 0 l 566 379 q 532 482 566 446 q 443 518 498 518 q 289 429 363 518 l 289 0 l 87 0 l 87 640 l 289 640 z "},"n":{"ha":810,"x_min":83,"x_max":726,"o":"m 285 640 l 285 549 q 493 653 374 653 q 660 589 593 653 q 726 407 726 526 l 726 0 l 525 0 l 525 390 q 425 518 525 518 q 285 412 354 518 l 285 0 l 83 0 l 83 640 l 285 640 z "},"o":{"ha":825,"x_min":52,"x_max":774,"o":"m 414 653 q 669 565 564 653 q 774 319 774 477 q 667 75 774 161 q 414 -12 561 -12 q 153 80 254 -12 q 52 321 52 173 q 155 562 52 471 q 414 653 258 653 m 414 107 q 558 325 558 107 q 414 533 558 533 q 306 478 345 533 q 267 321 267 423 q 414 107 267 107 z "},"p":{"ha":810,"x_min":79,"x_max":761,"o":"m 281 640 l 281 585 q 464 653 361 653 q 675 559 589 653 q 761 328 761 465 q 674 81 761 174 q 446 -12 588 -12 q 281 32 357 -12 l 281 -319 l 79 -319 l 79 640 l 281 640 m 281 458 l 281 164 q 397 122 338 122 q 514 175 471 122 q 557 317 557 227 q 517 459 557 408 q 406 510 477 510 q 281 458 345 510 z "},"q":{"ha":810,"x_min":49,"x_max":729,"o":"m 528 640 l 729 640 l 729 -319 l 528 -319 l 528 32 q 363 -12 453 -12 q 135 81 222 -12 q 49 328 49 175 q 134 560 49 467 q 346 653 219 653 q 528 585 448 653 l 528 640 m 528 164 l 528 458 q 403 510 465 510 q 292 459 332 510 q 253 317 253 409 q 295 174 253 227 q 411 122 338 122 q 528 164 471 122 z "},"r":{"ha":623,"x_min":89,"x_max":631,"o":"m 290 640 l 290 457 l 293 457 q 497 653 380 653 q 631 595 553 653 l 575 416 q 456 464 500 464 q 338 377 386 464 q 290 277 290 291 l 290 0 l 89 0 l 89 640 l 290 640 z "},"s":{"ha":593,"x_min":52,"x_max":555,"o":"m 524 606 l 524 463 q 310 533 408 533 q 237 484 237 533 q 253 458 237 471 q 370 405 268 446 q 513 312 471 365 q 555 196 555 259 q 488 42 555 96 q 294 -12 420 -12 q 65 35 165 -12 l 65 176 q 272 122 189 122 q 370 170 370 122 q 352 204 370 188 q 231 260 334 220 q 90 349 127 300 q 52 456 52 397 q 124 598 52 543 q 317 653 197 653 q 524 606 431 653 z "},"t":{"ha":564,"x_min":17,"x_max":543,"o":"m 543 640 l 543 503 l 310 503 l 310 239 q 336 164 310 191 q 408 136 362 136 q 543 174 471 136 l 543 28 q 357 -12 447 -12 q 174 49 239 -12 q 109 228 109 110 l 109 503 l 17 503 l 17 542 l 285 842 l 310 842 l 310 640 l 543 640 z "},"u":{"ha":810,"x_min":83,"x_max":726,"o":"m 525 0 l 525 92 q 318 -12 436 -12 q 149 52 214 -12 q 83 231 83 117 l 83 640 l 285 640 l 285 244 q 386 122 285 122 q 483 166 443 122 q 524 232 524 211 l 524 640 l 726 640 l 726 0 l 525 0 z "},"v":{"ha":708,"x_min":3,"x_max":705,"o":"m 298 -12 l 3 640 l 218 640 l 354 288 l 492 640 l 705 640 l 411 -12 l 298 -12 z "},"w":{"ha":1084,"x_min":-1,"x_max":1086,"o":"m 543 336 l 382 -12 l 288 -12 l -1 640 l 204 640 l 339 288 l 482 640 l 604 640 l 746 288 l 880 640 l 1086 640 l 799 -12 l 703 -12 l 543 336 z "},"x":{"ha":766,"x_min":5,"x_max":762,"o":"m 743 640 l 490 328 l 762 0 l 529 0 l 378 199 l 232 0 l 5 0 l 267 328 l 5 640 l 240 640 l 378 456 l 509 640 l 743 640 z "},"y":{"ha":708,"x_min":1,"x_max":707,"o":"m 707 640 l 278 -307 l 64 -307 l 252 104 l 1 640 l 216 640 l 351 311 l 496 640 l 707 640 z "},"z":{"ha":724,"x_min":26,"x_max":684,"o":"m 58 640 l 684 640 l 355 138 l 684 138 l 684 0 l 26 0 l 355 503 l 58 503 l 58 640 z "},"{":{"ha":534,"x_min":40,"x_max":504,"o":"m 40 436 q 152 482 115 436 q 189 643 189 528 l 189 753 q 249 945 189 884 q 443 1006 309 1006 l 504 1006 l 504 843 l 496 843 q 384 820 404 843 q 364 689 364 796 q 344 482 364 552 q 245 357 323 412 q 344 232 323 302 q 364 25 364 162 q 384 -105 364 -82 q 496 -129 404 -129 l 504 -129 l 504 -292 l 443 -292 q 249 -231 309 -292 q 189 -39 189 -170 l 189 71 q 152 232 189 186 q 40 278 115 277 l 40 436 z "},"|":{"ha":390,"x_min":119,"x_max":271,"o":"m 119 -307 l 119 947 l 271 947 l 271 -307 l 119 -307 z "},"}":{"ha":534,"x_min":31,"x_max":494,"o":"m 494 278 q 382 232 419 277 q 346 71 346 186 l 346 -39 q 286 -231 346 -170 q 92 -292 226 -292 l 31 -292 l 31 -129 l 39 -129 q 151 -105 131 -129 q 171 25 171 -82 q 191 232 171 162 q 289 357 212 302 q 191 482 212 412 q 171 689 171 552 q 151 820 171 796 q 39 843 131 843 l 31 843 l 31 1006 l 92 1006 q 286 945 226 1006 q 346 753 346 884 l 346 643 q 382 482 346 528 q 494 436 419 436 l 494 278 z "},"~":{"ha":811,"x_min":22,"x_max":787,"o":"m 22 243 l 22 425 q 244 525 142 525 q 420 471 306 525 q 585 416 534 416 q 787 519 669 416 l 787 339 q 681 267 743 296 q 568 239 618 239 q 391 294 508 239 q 233 349 273 349 q 22 243 146 349 z "},"Ä":{"ha":1084,"x_min":4,"x_max":1080,"o":"m 660 947 l 1080 0 l 827 0 l 749 187 l 325 187 l 254 0 l 4 0 l 386 947 l 660 947 m 679 353 l 526 721 l 387 353 l 679 353 m 704 1260 q 783 1228 751 1260 q 815 1149 815 1196 q 783 1070 815 1103 q 704 1038 751 1038 q 626 1070 658 1038 q 593 1149 593 1103 q 626 1228 593 1196 q 704 1260 658 1260 m 380 1260 q 459 1228 427 1261 q 492 1149 492 1196 q 460 1070 492 1103 q 380 1038 428 1038 q 302 1070 334 1038 q 270 1149 270 1103 q 302 1228 270 1196 q 380 1260 334 1260 z "},"Å":{"ha":1084,"x_min":4,"x_max":1080,"o":"m 660 947 l 1080 0 l 827 0 l 749 187 l 325 187 l 254 0 l 4 0 l 386 947 l 404 947 q 381 1024 381 981 q 423 1123 381 1082 q 523 1164 465 1164 q 622 1123 581 1164 q 663 1024 663 1082 q 641 947 663 981 l 660 947 m 523 1099 q 469 1077 491 1099 q 448 1024 448 1056 q 470 970 448 992 q 523 947 492 947 q 577 970 555 947 q 599 1024 599 992 q 576 1077 599 1055 q 523 1099 554 1099 m 679 353 l 526 721 l 387 353 l 679 353 z "},"Ç":{"ha":1071,"x_min":65,"x_max":989,"o":"m 989 289 l 989 82 q 593 -12 800 -18 l 585 -32 q 671 -134 671 -63 q 630 -219 671 -189 q 519 -249 588 -249 q 417 -236 452 -249 l 417 -165 q 522 -122 522 -169 q 465 -83 522 -83 l 510 -5 q 189 153 312 21 q 65 471 65 286 q 230 824 65 689 q 635 960 395 960 q 978 876 838 960 l 978 665 q 652 762 806 762 q 407 684 505 762 q 309 475 309 605 q 405 264 309 345 q 646 184 502 184 q 989 289 784 184 z "},"É":{"ha":882,"x_min":109,"x_max":807,"o":"m 807 174 l 807 0 l 109 0 l 109 947 l 798 947 l 798 774 l 345 774 l 345 575 l 777 575 l 777 401 l 345 401 l 345 174 l 807 174 m 663 1242 l 433 1039 l 330 1039 l 433 1242 l 663 1242 z "},"Ñ":{"ha":1173,"x_min":107,"x_max":1065,"o":"m 1065 947 l 1065 0 l 867 0 l 343 607 l 343 0 l 107 0 l 107 947 l 323 947 l 829 368 l 829 947 l 1065 947 m 763 1235 l 857 1235 q 695 1025 843 1025 q 575 1063 652 1025 q 471 1101 498 1101 q 409 1028 418 1101 l 317 1028 q 369 1181 325 1128 q 482 1235 413 1235 q 601 1198 527 1235 q 702 1160 674 1160 q 763 1235 751 1160 z "},"Ö":{"ha":1215,"x_min":65,"x_max":1150,"o":"m 608 960 q 1000 813 850 960 q 1150 473 1150 667 q 998 132 1150 277 q 608 -12 846 -12 q 216 132 368 -12 q 65 473 65 275 q 215 814 65 668 q 608 960 366 960 m 608 184 q 825 264 743 184 q 907 473 907 344 q 825 683 907 604 q 608 762 743 762 q 391 683 473 762 q 309 473 309 604 q 391 264 309 344 q 608 184 473 184 m 769 1260 q 848 1228 816 1260 q 880 1149 880 1196 q 848 1070 880 1103 q 769 1038 817 1038 q 691 1070 723 1038 q 659 1149 659 1103 q 691 1228 659 1196 q 769 1260 723 1260 m 446 1260 q 525 1228 492 1261 q 557 1149 557 1196 q 525 1070 557 1103 q 446 1038 493 1038 q 367 1070 399 1038 q 335 1149 335 1103 q 367 1228 335 1196 q 446 1260 399 1260 z "},"Ü":{"ha":1143,"x_min":97,"x_max":1044,"o":"m 808 947 l 1044 947 l 1044 410 q 922 95 1044 202 q 571 -12 799 -12 q 221 96 346 -12 q 97 408 97 205 l 97 947 l 334 947 l 334 403 q 398 244 334 304 q 568 184 463 184 q 743 245 677 184 q 808 419 808 307 l 808 947 m 733 1260 q 812 1228 780 1260 q 844 1149 844 1196 q 812 1070 844 1103 q 733 1038 781 1038 q 655 1070 687 1038 q 623 1149 623 1103 q 655 1228 623 1196 q 733 1260 687 1260 m 410 1260 q 489 1228 456 1261 q 521 1149 521 1196 q 489 1070 521 1103 q 410 1038 457 1038 q 331 1070 363 1038 q 299 1149 299 1103 q 331 1228 299 1196 q 410 1260 363 1260 z "},"á":{"ha":737,"x_min":46,"x_max":737,"o":"m 737 158 l 737 46 q 549 -12 637 -12 q 436 60 454 -12 q 225 -12 331 -12 q 98 35 151 -12 q 46 144 46 82 q 100 279 46 228 q 427 411 154 330 q 315 518 433 518 q 79 411 187 518 l 79 575 q 357 653 205 653 q 628 458 628 653 l 628 167 q 661 122 628 122 q 737 158 686 122 m 427 155 l 427 310 q 288 247 326 275 q 250 175 250 218 q 269 127 250 147 q 315 107 288 107 q 427 155 372 107 m 591 939 l 361 736 l 258 736 l 361 939 l 591 939 z "},"à":{"ha":737,"x_min":46,"x_max":737,"o":"m 737 158 l 737 46 q 549 -12 637 -12 q 436 60 454 -12 q 225 -12 331 -12 q 98 35 151 -12 q 46 144 46 82 q 100 279 46 228 q 427 411 154 330 q 315 518 433 518 q 79 411 187 518 l 79 575 q 357 653 205 653 q 628 458 628 653 l 628 167 q 661 122 628 122 q 737 158 686 122 m 427 155 l 427 310 q 288 247 326 275 q 250 175 250 218 q 269 127 250 147 q 315 107 288 107 q 427 155 372 107 m 149 939 l 378 939 l 481 736 l 378 736 l 149 939 z "},"â":{"ha":737,"x_min":46,"x_max":737,"o":"m 737 158 l 737 46 q 549 -12 637 -12 q 436 60 454 -12 q 225 -12 331 -12 q 98 35 151 -12 q 46 144 46 82 q 100 279 46 228 q 427 411 154 330 q 315 518 433 518 q 79 411 187 518 l 79 575 q 357 653 205 653 q 628 458 628 653 l 628 167 q 661 122 628 122 q 737 158 686 122 m 427 155 l 427 310 q 288 247 326 275 q 250 175 250 218 q 269 127 250 147 q 315 107 288 107 q 427 155 372 107 m 464 968 l 602 725 l 478 725 l 370 846 l 258 725 l 136 725 l 274 968 l 464 968 z "},"ä":{"ha":737,"x_min":46,"x_max":737,"o":"m 737 158 l 737 46 q 549 -12 637 -12 q 436 60 454 -12 q 225 -12 331 -12 q 98 35 151 -12 q 46 144 46 82 q 100 279 46 228 q 427 411 154 330 q 315 518 433 518 q 79 411 187 518 l 79 575 q 357 653 205 653 q 628 458 628 653 l 628 167 q 661 122 628 122 q 737 158 686 122 m 427 155 l 427 310 q 288 247 326 275 q 250 175 250 218 q 269 127 250 147 q 315 107 288 107 q 427 155 372 107 m 530 957 q 609 925 577 957 q 642 846 642 892 q 610 767 642 800 q 530 734 578 734 q 452 767 484 734 q 420 846 420 800 q 452 925 420 892 q 530 957 484 957 m 207 957 q 286 925 254 958 q 318 846 318 892 q 286 767 318 800 q 207 734 254 734 q 129 767 161 734 q 96 846 96 800 q 129 925 96 892 q 207 957 161 957 z "},"ã":{"ha":737,"x_min":46,"x_max":737,"o":"m 737 158 l 737 46 q 549 -12 637 -12 q 436 60 454 -12 q 225 -12 331 -12 q 98 35 151 -12 q 46 144 46 82 q 100 279 46 228 q 427 411 154 330 q 315 518 433 518 q 79 411 187 518 l 79 575 q 357 653 205 653 q 628 458 628 653 l 628 167 q 661 122 628 122 q 737 158 686 122 m 427 155 l 427 310 q 288 247 326 275 q 250 175 250 218 q 269 127 250 147 q 315 107 288 107 q 427 155 372 107 m 545 932 l 639 932 q 477 722 625 722 q 357 760 434 722 q 253 798 279 798 q 191 725 200 798 l 99 725 q 151 878 106 825 q 264 932 195 932 q 382 895 309 932 q 484 857 456 857 q 545 932 532 857 z "},"å":{"ha":737,"x_min":46,"x_max":737,"o":"m 737 158 l 737 46 q 549 -12 637 -12 q 436 60 454 -12 q 225 -12 331 -12 q 98 35 151 -12 q 46 144 46 82 q 100 279 46 228 q 427 411 154 330 q 315 518 433 518 q 79 411 187 518 l 79 575 q 357 653 205 653 q 628 458 628 653 l 628 167 q 661 122 628 122 q 737 158 686 122 m 427 155 l 427 310 q 288 247 326 275 q 250 175 250 218 q 269 127 250 147 q 315 107 288 107 q 427 155 372 107 m 228 847 q 270 946 228 905 q 370 987 311 987 q 469 946 428 987 q 510 847 510 905 q 469 747 510 789 q 370 705 427 705 q 270 747 311 705 q 228 847 228 789 m 446 847 q 424 900 446 878 q 370 922 401 922 q 316 900 338 922 q 294 847 294 878 q 316 793 294 816 q 370 771 338 771 q 424 793 401 771 q 446 847 446 816 z "},"ç":{"ha":694,"x_min":56,"x_max":643,"o":"m 643 175 l 643 31 q 412 -12 528 -12 l 404 -32 q 490 -134 490 -63 q 450 -217 490 -186 q 339 -249 410 -249 q 236 -236 271 -249 l 236 -165 q 342 -122 342 -169 q 285 -83 342 -83 l 330 -3 q 127 107 199 22 q 56 318 56 193 q 158 558 56 464 q 418 653 260 653 q 633 611 519 653 l 633 461 q 469 504 550 504 q 325 454 379 504 q 271 319 271 404 q 323 183 271 235 q 463 131 376 131 q 643 175 526 131 z "},"é":{"ha":766,"x_min":52,"x_max":726,"o":"m 708 199 l 708 72 q 422 -12 593 -12 q 153 78 254 -12 q 52 318 52 169 q 146 559 52 465 q 389 653 241 653 q 631 554 536 653 q 720 288 726 454 l 260 288 q 321 154 266 201 q 471 107 377 107 q 708 199 584 107 m 264 393 l 542 393 q 403 533 526 533 q 264 393 279 533 m 606 939 l 376 736 l 273 736 l 376 939 l 606 939 z "},"è":{"ha":766,"x_min":52,"x_max":726,"o":"m 708 199 l 708 72 q 422 -12 593 -12 q 153 78 254 -12 q 52 318 52 169 q 146 559 52 465 q 389 653 241 653 q 631 554 536 653 q 720 288 726 454 l 260 288 q 321 154 266 201 q 471 107 377 107 q 708 199 584 107 m 264 393 l 542 393 q 403 533 526 533 q 264 393 279 533 m 164 939 l 393 939 l 496 736 l 393 736 l 164 939 z "},"ê":{"ha":766,"x_min":52,"x_max":726,"o":"m 708 199 l 708 72 q 422 -12 593 -12 q 153 78 254 -12 q 52 318 52 169 q 146 559 52 465 q 389 653 241 653 q 631 554 536 653 q 720 288 726 454 l 260 288 q 321 154 266 201 q 471 107 377 107 q 708 199 584 107 m 264 393 l 542 393 q 403 533 526 533 q 264 393 279 533 m 479 968 l 616 725 l 493 725 l 385 846 l 273 725 l 151 725 l 289 968 l 479 968 z "},"ë":{"ha":766,"x_min":52,"x_max":726,"o":"m 708 199 l 708 72 q 422 -12 593 -12 q 153 78 254 -12 q 52 318 52 169 q 146 559 52 465 q 389 653 241 653 q 631 554 536 653 q 720 288 726 454 l 260 288 q 321 154 266 201 q 471 107 377 107 q 708 199 584 107 m 264 393 l 542 393 q 403 533 526 533 q 264 393 279 533 m 545 957 q 624 925 592 957 q 656 846 656 892 q 625 767 656 800 q 545 734 593 734 q 467 767 499 734 q 435 846 435 800 q 467 925 435 892 q 545 957 499 957 m 222 957 q 301 925 269 958 q 333 846 333 892 q 301 767 333 800 q 222 734 269 734 q 143 767 176 734 q 111 846 111 800 q 143 925 111 892 q 222 957 176 957 z "},"í":{"ha":376,"x_min":77,"x_max":410,"o":"m 289 640 l 289 0 l 87 0 l 87 640 l 289 640 m 410 939 l 180 736 l 77 736 l 180 939 l 410 939 z "},"ì":{"ha":376,"x_min":-33,"x_max":300,"o":"m 289 640 l 289 0 l 87 0 l 87 640 l 289 640 m -33 939 l 197 939 l 300 736 l 197 736 l -33 939 z "},"î":{"ha":376,"x_min":-45,"x_max":420,"o":"m 289 640 l 289 0 l 87 0 l 87 640 l 289 640 m 283 968 l 420 725 l 297 725 l 189 846 l 77 725 l -45 725 l 93 968 l 283 968 z "},"ï":{"ha":376,"x_min":-84,"x_max":461,"o":"m 289 640 l 289 0 l 87 0 l 87 640 l 289 640 m 350 957 q 429 925 397 957 q 461 846 461 892 q 429 767 461 800 q 350 734 397 734 q 272 767 304 734 q 239 846 239 800 q 272 925 239 892 q 350 957 304 957 m 26 957 q 105 925 73 958 q 138 846 138 892 q 106 767 138 800 q 26 734 74 734 q -52 767 -20 734 q -84 846 -84 800 q -52 925 -84 892 q 26 957 -20 957 z "},"ñ":{"ha":810,"x_min":83,"x_max":726,"o":"m 285 640 l 285 549 q 493 653 374 653 q 660 589 593 653 q 726 407 726 526 l 726 0 l 525 0 l 525 390 q 425 518 525 518 q 285 412 354 518 l 285 0 l 83 0 l 83 640 l 285 640 m 581 932 l 675 932 q 513 722 661 722 q 393 760 470 722 q 289 798 315 798 q 227 725 236 798 l 135 725 q 186 878 142 825 q 300 932 231 932 q 418 895 345 932 q 519 857 492 857 q 581 932 568 857 z "},"ó":{"ha":825,"x_min":52,"x_max":774,"o":"m 414 653 q 669 565 564 653 q 774 319 774 477 q 667 75 774 161 q 414 -12 561 -12 q 153 80 254 -12 q 52 321 52 173 q 155 562 52 471 q 414 653 258 653 m 414 107 q 558 325 558 107 q 414 533 558 533 q 306 478 345 533 q 267 321 267 423 q 414 107 267 107 m 635 939 l 406 736 l 302 736 l 406 939 l 635 939 z "},"ò":{"ha":825,"x_min":52,"x_max":774,"o":"m 414 653 q 669 565 564 653 q 774 319 774 477 q 667 75 774 161 q 414 -12 561 -12 q 153 80 254 -12 q 52 321 52 173 q 155 562 52 471 q 414 653 258 653 m 414 107 q 558 325 558 107 q 414 533 558 533 q 306 478 345 533 q 267 321 267 423 q 414 107 267 107 m 193 939 l 422 939 l 526 736 l 422 736 l 193 939 z "},"ô":{"ha":825,"x_min":52,"x_max":774,"o":"m 414 653 q 669 565 564 653 q 774 319 774 477 q 667 75 774 161 q 414 -12 561 -12 q 153 80 254 -12 q 52 321 52 173 q 155 562 52 471 q 414 653 258 653 m 414 107 q 558 325 558 107 q 414 533 558 533 q 306 478 345 533 q 267 321 267 423 q 414 107 267 107 m 508 968 l 646 725 l 522 725 l 414 846 l 302 725 l 180 725 l 318 968 l 508 968 z "},"ö":{"ha":825,"x_min":52,"x_max":774,"o":"m 414 653 q 669 565 564 653 q 774 319 774 477 q 667 75 774 161 q 414 -12 561 -12 q 153 80 254 -12 q 52 321 52 173 q 155 562 52 471 q 414 653 258 653 m 414 107 q 558 325 558 107 q 414 533 558 533 q 306 478 345 533 q 267 321 267 423 q 414 107 267 107 m 574 957 q 653 925 621 957 q 686 846 686 892 q 654 767 686 800 q 574 734 622 734 q 496 767 528 734 q 464 846 464 800 q 496 925 464 892 q 574 957 528 957 m 251 957 q 330 925 298 958 q 362 846 362 892 q 330 767 362 800 q 251 734 298 734 q 173 767 205 734 q 140 846 140 800 q 173 925 140 892 q 251 957 205 957 z "},"õ":{"ha":825,"x_min":52,"x_max":774,"o":"m 414 653 q 669 565 564 653 q 774 319 774 477 q 667 75 774 161 q 414 -12 561 -12 q 153 80 254 -12 q 52 321 52 173 q 155 562 52 471 q 414 653 258 653 m 414 107 q 558 325 558 107 q 414 533 558 533 q 306 478 345 533 q 267 321 267 423 q 414 107 267 107 m 589 932 l 684 932 q 522 722 669 722 q 401 760 479 722 q 298 798 324 798 q 235 725 245 798 l 144 725 q 195 878 151 825 q 309 932 239 932 q 427 895 353 932 q 528 857 500 857 q 589 932 577 857 z "},"ú":{"ha":810,"x_min":83,"x_max":726,"o":"m 525 0 l 525 92 q 318 -12 436 -12 q 149 52 214 -12 q 83 231 83 117 l 83 640 l 285 640 l 285 244 q 386 122 285 122 q 483 166 443 122 q 524 232 524 211 l 524 640 l 726 640 l 726 0 l 525 0 m 627 939 l 397 736 l 294 736 l 397 939 l 627 939 z "},"ù":{"ha":810,"x_min":83,"x_max":726,"o":"m 525 0 l 525 92 q 318 -12 436 -12 q 149 52 214 -12 q 83 231 83 117 l 83 640 l 285 640 l 285 244 q 386 122 285 122 q 483 166 443 122 q 524 232 524 211 l 524 640 l 726 640 l 726 0 l 525 0 m 184 939 l 414 939 l 517 736 l 414 736 l 184 939 z "},"û":{"ha":810,"x_min":83,"x_max":726,"o":"m 525 0 l 525 92 q 318 -12 436 -12 q 149 52 214 -12 q 83 231 83 117 l 83 640 l 285 640 l 285 244 q 386 122 285 122 q 483 166 443 122 q 524 232 524 211 l 524 640 l 726 640 l 726 0 l 525 0 m 500 968 l 637 725 l 514 725 l 406 846 l 294 725 l 172 725 l 310 968 l 500 968 z "},"ü":{"ha":810,"x_min":83,"x_max":726,"o":"m 525 0 l 525 92 q 318 -12 436 -12 q 149 52 214 -12 q 83 231 83 117 l 83 640 l 285 640 l 285 244 q 386 122 285 122 q 483 166 443 122 q 524 232 524 211 l 524 640 l 726 640 l 726 0 l 525 0 m 566 957 q 645 925 613 957 q 677 846 677 892 q 646 767 677 800 q 566 734 614 734 q 488 767 520 734 q 456 846 456 800 q 488 925 456 892 q 566 957 520 957 m 243 957 q 322 925 290 958 q 354 846 354 892 q 322 767 354 800 q 243 734 290 734 q 164 767 197 734 q 132 846 132 800 q 164 925 132 892 q 243 957 197 957 z "},"†":{"ha":708,"x_min":35,"x_max":675,"o":"m 314 529 l 72 476 q 61 475 66 475 q 35 529 35 475 l 35 615 q 62 671 35 671 q 72 669 66 671 l 314 615 l 264 921 q 273 953 260 947 q 314 960 285 960 l 396 960 q 437 952 427 960 q 444 922 448 945 l 396 615 l 636 669 q 675 615 675 678 l 675 529 q 637 476 675 468 l 396 529 l 471 -288 q 427 -319 475 -319 l 282 -319 q 237 -283 234 -319 l 314 529 z "},"°":{"ha":550,"x_min":58,"x_max":492,"o":"m 58 794 q 122 947 58 884 q 275 1011 186 1011 q 428 947 364 1011 q 492 794 492 884 q 428 642 492 705 q 275 578 364 578 q 122 642 186 578 q 58 794 58 705 m 372 794 q 344 863 372 835 q 275 892 315 892 q 206 863 235 892 q 178 794 178 835 q 206 726 178 754 q 275 697 235 697 q 344 726 315 697 q 372 794 372 754 z "},"¢":{"ha":694,"x_min":57,"x_max":654,"o":"m 654 878 l 578 632 q 632 612 615 621 l 632 461 q 536 500 588 486 l 421 136 q 462 134 441 134 q 642 179 549 134 l 642 31 q 375 -12 535 -12 l 296 -262 l 197 -262 l 281 0 q 57 315 57 76 q 157 557 57 462 q 419 652 256 652 q 484 648 450 652 l 555 878 l 654 878 m 334 172 l 439 504 q 313 446 359 498 q 267 319 267 395 q 334 172 267 227 z "},"£":{"ha":724,"x_min":65,"x_max":667,"o":"m 467 549 l 467 383 l 332 383 l 296 203 q 339 210 317 210 q 447 194 382 210 q 554 179 511 179 q 667 203 616 179 l 667 16 q 543 -12 608 -12 q 432 4 521 -12 q 282 21 342 21 q 65 -12 184 21 q 138 383 75 132 l 75 383 l 75 549 l 182 549 q 348 882 254 804 q 543 960 443 960 q 576 957 559 960 l 657 775 q 590 783 621 783 q 378 549 431 783 l 467 549 z "},"§":{"ha":724,"x_min":35,"x_max":688,"o":"m 157 604 q 104 688 117 661 q 92 750 92 715 q 167 903 92 846 q 371 960 242 960 q 562 918 494 960 q 629 808 629 876 q 599 735 629 766 q 526 705 569 705 q 439 779 462 705 q 417 825 431 810 q 368 840 404 840 q 311 820 334 840 q 288 771 288 800 q 309 722 288 749 q 460 608 331 695 q 639 443 590 521 q 688 286 688 365 q 659 154 688 210 q 564 35 629 97 q 628 -122 628 -47 q 556 -267 628 -214 q 358 -319 484 -319 q 169 -277 243 -319 q 94 -170 94 -234 q 125 -100 94 -130 q 197 -69 157 -69 q 288 -151 267 -69 q 307 -189 295 -177 q 354 -200 319 -200 q 411 -182 389 -200 q 433 -135 433 -163 q 409 -77 433 -108 q 256 40 385 -47 q 80 200 126 127 q 35 347 35 273 q 157 604 35 484 m 260 513 q 212 401 212 456 q 243 316 212 361 q 464 129 273 271 q 511 235 511 180 q 420 386 511 314 l 260 513 z "},"•":{"ha":492,"x_min":45,"x_max":444,"o":"m 45 473 q 103 615 45 557 q 244 673 161 673 q 386 615 328 673 q 444 473 444 557 q 386 332 444 391 q 244 273 328 273 q 103 332 161 273 q 45 473 45 391 z "},"¶":{"ha":766,"x_min":-1,"x_max":765,"o":"m 431 -321 l 265 -321 l 265 389 q 69 471 140 399 q -1 664 -1 543 q 80 872 -1 797 q 301 947 161 947 l 765 947 l 765 769 l 689 769 l 689 -321 l 524 -321 l 524 769 l 431 769 l 431 -321 z "},"ß":{"ha":839,"x_min":90,"x_max":766,"o":"m 90 0 l 90 661 q 173 883 90 806 q 397 960 256 960 q 638 894 548 960 q 728 720 728 828 q 606 536 728 591 q 766 278 766 474 q 688 68 766 149 q 486 -12 610 -12 q 392 0 437 -12 l 392 129 q 429 119 419 119 q 526 169 490 119 q 562 302 562 219 q 400 485 562 492 l 400 585 q 524 713 524 580 q 493 806 524 772 q 410 840 463 840 q 292 664 292 840 l 292 0 l 90 0 z "},"®":{"ha":1028,"x_min":-5,"x_max":1034,"o":"m 514 960 q 882 808 730 960 q 1034 440 1034 656 q 882 73 1034 224 q 514 -79 730 -79 q 146 72 298 -79 q -5 440 -5 224 q 146 808 -5 656 q 514 960 298 960 m 514 857 q 219 735 340 857 q 97 440 97 614 q 219 144 97 267 q 514 22 340 22 q 809 144 687 22 q 932 440 932 267 q 810 735 932 614 q 514 857 688 857 m 758 162 l 621 162 l 576 253 q 525 334 554 298 q 475 379 495 370 q 411 389 456 389 l 390 389 l 390 162 l 279 162 l 279 714 l 551 714 q 678 673 631 714 q 725 559 725 633 q 576 406 725 427 l 576 403 q 632 368 610 391 q 694 273 653 345 l 758 162 m 390 476 l 505 476 q 607 553 607 476 q 493 628 607 628 l 390 628 l 390 476 z "},"©":{"ha":1028,"x_min":-5,"x_max":1034,"o":"m 514 960 q 882 808 730 960 q 1034 440 1034 656 q 882 73 1034 224 q 514 -79 730 -79 q 146 72 298 -79 q -5 440 -5 224 q 146 808 -5 656 q 514 960 298 960 m 514 857 q 219 735 340 857 q 97 440 97 614 q 219 144 97 267 q 514 22 340 22 q 809 144 687 22 q 932 440 932 267 q 810 735 932 614 q 514 857 688 857 m 639 363 l 749 326 q 521 151 694 151 q 329 229 399 151 q 258 436 258 307 q 329 649 258 570 q 522 729 399 729 q 749 564 690 729 l 639 537 q 518 632 604 632 q 378 440 378 632 q 413 299 378 352 q 513 247 448 247 q 639 363 606 247 z "},"™":{"ha":1389,"x_min":147,"x_max":1219,"o":"m 318 391 l 318 850 l 147 850 l 147 947 l 597 947 l 597 850 l 431 850 l 431 391 l 318 391 m 664 391 l 664 947 l 840 947 l 943 564 l 1043 947 l 1219 947 l 1219 391 l 1112 391 l 1112 834 l 991 391 l 890 391 l 771 834 l 771 391 l 664 391 z "},"´":{"ha":463,"x_min":121,"x_max":453,"o":"m 453 939 l 224 736 l 121 736 l 224 939 l 453 939 z "},"¨":{"ha":463,"x_min":-41,"x_max":504,"o":"m 393 957 q 472 925 439 957 q 504 846 504 892 q 472 767 504 800 q 393 734 440 734 q 314 767 347 734 q 282 846 282 800 q 314 925 282 892 q 393 957 347 957 m 69 957 q 148 925 116 958 q 180 846 180 892 q 149 767 180 800 q 69 734 117 734 q -9 767 23 734 q -41 846 -41 800 q -9 925 -41 892 q 69 957 23 957 z "},"≠":{"ha":762,"x_min":21,"x_max":750,"o":"m 750 189 l 329 189 l 204 -35 l 136 4 l 239 189 l 21 189 l 21 265 l 282 265 l 389 458 l 21 458 l 21 534 l 432 534 l 558 762 l 627 724 l 521 534 l 750 534 l 750 458 l 479 458 l 371 265 l 750 265 l 750 189 z "},"Æ":{"ha":1491,"x_min":-8,"x_max":1413,"o":"m 1400 947 l 1400 774 l 958 774 l 958 567 l 1381 567 l 1381 393 l 958 393 l 958 174 l 1413 174 l 1413 0 l 722 0 l 722 393 l 469 393 l 235 0 l -8 0 l 558 947 l 1400 947 m 574 567 l 722 567 l 722 823 l 574 567 z "},"Ø":{"ha":1215,"x_min":36,"x_max":1156,"o":"m 273 85 l 121 -52 l 36 54 l 175 175 q 65 473 65 309 q 216 813 65 667 q 610 960 367 960 q 943 861 798 960 l 1060 966 l 1156 871 l 1040 771 q 1150 473 1150 638 q 999 132 1150 276 q 610 -12 847 -12 q 273 85 421 -12 m 343 328 l 781 718 q 610 762 708 762 q 392 683 475 762 q 309 473 309 603 q 343 328 309 389 m 872 621 l 436 229 q 610 184 503 184 q 825 264 743 184 q 907 473 907 344 q 872 621 907 560 z "},"∞":{"ha":990,"x_min":103,"x_max":889,"o":"m 462 572 q 564 690 512 654 q 681 726 616 726 q 830 663 770 726 q 889 490 889 600 q 830 316 889 380 q 681 253 770 253 q 565 289 617 253 q 462 408 513 325 q 368 321 421 351 q 267 291 315 291 q 151 344 199 291 q 103 490 103 397 q 151 635 103 582 q 267 688 199 688 q 368 658 315 688 q 462 572 421 628 m 525 491 q 605 384 582 404 q 683 353 641 353 q 762 393 734 353 q 790 492 790 433 q 760 591 790 556 q 685 627 729 627 q 615 602 650 627 q 525 491 581 578 m 404 492 q 275 588 336 588 q 221 563 243 588 q 198 493 198 538 q 220 421 198 447 q 275 395 243 395 q 322 410 301 395 q 404 492 359 434 z "},"±":{"ha":811,"x_min":58,"x_max":753,"o":"m 58 500 l 58 677 l 317 677 l 317 936 l 494 936 l 494 677 l 753 677 l 753 500 l 494 500 l 494 241 l 317 241 l 317 500 l 58 500 m 58 0 l 58 178 l 753 178 l 753 0 l 58 0 z "},"≤":{"ha":762,"x_min":40,"x_max":730,"o":"m 730 163 l 40 482 l 40 568 l 730 888 l 730 802 l 129 525 l 730 249 l 730 163 m 730 0 l 40 0 l 40 76 l 730 76 l 730 0 z "},"≥":{"ha":762,"x_min":40,"x_max":730,"o":"m 730 482 l 40 163 l 40 249 l 642 525 l 40 802 l 40 888 l 730 568 l 730 482 m 730 0 l 40 0 l 40 76 l 730 76 l 730 0 z "},"¥":{"ha":766,"x_min":1,"x_max":766,"o":"m 286 184 l 35 184 l 35 336 l 286 336 l 286 416 l 35 416 l 35 568 l 211 568 l 1 994 l 211 994 l 383 610 l 557 994 l 766 994 l 553 568 l 732 568 l 732 416 l 478 416 l 478 336 l 732 336 l 732 184 l 478 184 l 478 0 l 286 0 l 286 184 z "},"µ":{"ha":854,"x_min":94,"x_max":758,"o":"m 94 640 l 296 640 l 296 328 q 424 122 296 122 q 521 171 485 122 q 557 302 557 219 l 557 640 l 758 640 l 758 0 l 571 0 l 571 83 l 568 83 q 514 13 552 37 q 431 -12 475 -12 q 298 78 338 -12 l 296 78 l 296 -244 l 94 -244 l 94 640 z "},"∂":{"ha":686,"x_min":30,"x_max":663,"o":"m 257 762 l 164 819 q 266 963 199 915 q 415 1011 333 1011 q 574 943 513 1011 q 663 640 663 845 q 606 296 663 463 q 450 57 550 130 q 241 -17 351 -17 q 89 45 147 -17 q 30 223 30 108 q 89 429 30 330 q 269 585 148 527 q 560 639 391 642 q 510 840 559 774 q 412 888 473 888 q 330 861 365 888 q 257 762 295 834 m 552 514 q 522 515 532 515 q 349 477 429 515 q 227 370 269 439 q 185 229 185 300 q 214 144 185 176 q 281 112 242 112 q 428 190 361 112 q 552 514 524 302 z "},"∑":{"ha":990,"x_min":83,"x_max":940,"o":"m 94 1011 l 933 1011 l 933 900 l 263 900 l 675 374 l 235 -183 l 940 -183 l 940 -292 l 83 -292 l 83 -165 l 503 369 l 94 892 l 94 1011 z "},"∏":{"ha":1143,"x_min":109,"x_max":1033,"o":"m 109 1011 l 1033 1011 l 1033 -292 l 903 -292 l 903 893 l 240 893 l 240 -292 l 109 -292 l 109 1011 z "},"∫":{"ha":380,"x_min":7,"x_max":408,"o":"m 408 1194 q 388 1150 408 1167 q 337 1133 368 1133 q 296 1150 312 1133 q 267 1167 281 1167 q 248 1157 254 1167 q 241 1128 241 1147 q 255 954 241 1105 q 268 581 268 804 q 248 99 268 238 q 194 -92 227 -39 q 148 -134 176 -120 q 90 -149 120 -149 q 32 -125 57 -149 q 7 -67 7 -101 q 24 -23 7 -41 q 68 -5 41 -5 q 112 -27 91 -5 q 142 -50 134 -50 q 169 -19 159 -50 q 179 85 179 11 q 175 218 179 110 q 171 600 171 327 q 182 1033 171 926 q 210 1179 194 1139 q 257 1249 230 1226 q 314 1272 284 1272 q 380 1250 353 1272 q 408 1194 408 1228 z "},"ª":{"ha":492,"x_min":31,"x_max":490,"o":"m 490 675 l 490 596 q 361 558 421 558 q 283 596 299 558 q 153 558 219 558 q 65 588 100 558 q 31 663 31 618 q 70 739 31 705 q 275 815 109 772 q 212 872 275 872 q 53 798 125 872 l 53 911 q 239 960 138 960 q 372 929 323 960 q 421 840 421 899 l 421 675 q 433 650 421 650 q 490 675 450 650 m 275 663 l 275 745 q 197 712 216 726 q 178 675 178 698 q 212 639 178 639 q 275 663 244 639 z "},"º":{"ha":550,"x_min":36,"x_max":515,"o":"m 277 960 q 448 903 380 960 q 515 761 515 846 q 449 615 515 672 q 277 558 382 558 q 104 614 172 558 q 36 757 36 671 q 104 902 36 844 q 277 960 173 960 m 278 640 q 359 765 359 640 q 273 878 359 878 q 192 755 192 878 q 278 640 192 640 z "},"Ω":{"ha":1067,"x_min":37,"x_max":1038,"o":"m 313 140 q 188 216 235 173 q 86 362 119 277 q 52 550 52 448 q 182 890 52 760 q 527 1019 312 1019 q 791 966 685 1019 q 961 800 897 912 q 1024 551 1024 688 q 961 307 1024 414 q 765 141 897 199 l 989 157 l 1038 157 l 1038 0 l 602 0 l 602 165 q 706 236 668 197 q 784 368 758 290 q 810 532 810 446 q 732 785 810 699 q 534 871 654 871 q 341 783 418 871 q 263 535 263 695 q 293 363 263 443 q 377 229 322 284 q 475 165 412 194 l 475 0 l 37 0 l 37 156 l 104 156 l 313 140 z "},"æ":{"ha":1084,"x_min":50,"x_max":1048,"o":"m 1029 207 l 1029 75 q 751 -12 912 -12 q 492 75 591 -12 q 232 -12 378 -12 q 100 34 151 -12 q 50 147 50 79 q 117 287 50 230 q 436 410 184 344 q 409 489 441 459 q 322 518 377 518 q 199 488 268 518 q 78 410 131 458 l 78 570 q 342 653 220 653 q 550 582 455 653 q 741 653 629 653 q 960 551 871 653 q 1039 289 1048 449 l 637 289 q 677 156 633 204 q 796 107 721 107 q 1029 207 917 107 m 637 395 l 846 395 q 739 533 835 533 q 637 395 642 533 m 436 153 l 436 310 q 254 174 254 260 q 273 126 254 145 q 318 107 291 107 q 436 153 365 107 z "},"ø":{"ha":825,"x_min":52,"x_max":774,"o":"m 229 29 l 139 -75 l 68 -12 l 150 83 q 52 321 52 178 q 155 562 52 471 q 414 653 258 653 q 597 612 513 653 l 694 725 l 768 654 l 682 553 q 774 319 774 466 q 667 75 774 161 q 414 -12 561 -12 q 229 29 307 -12 m 275 231 l 504 501 q 414 533 467 533 q 306 478 345 533 q 267 321 267 423 q 275 231 267 265 m 551 404 l 323 139 q 414 107 358 107 q 558 325 558 107 q 551 404 558 372 z "},"¿":{"ha":521,"x_min":61,"x_max":486,"o":"m 422 532 q 387 447 422 482 q 301 411 351 411 q 216 447 252 411 q 180 532 180 482 q 216 617 180 582 q 301 653 252 653 q 387 617 351 653 q 422 532 422 582 m 486 -121 l 452 -292 q 290 -319 372 -319 q 123 -267 184 -319 q 61 -125 61 -214 q 80 -19 61 -74 q 165 118 99 35 q 247 241 232 201 q 262 317 262 281 l 262 334 q 271 352 262 348 q 306 355 279 355 q 341 345 331 355 q 366 286 352 334 q 380 200 380 237 q 317 15 380 124 q 272 -98 272 -61 q 354 -170 272 -170 q 473 -121 416 -170 l 486 -121 z "},"¡":{"ha":376,"x_min":66,"x_max":309,"o":"m 309 532 q 273 447 309 482 q 187 411 237 411 q 102 447 138 411 q 66 532 66 482 q 102 617 66 582 q 187 653 138 653 q 273 617 237 653 q 309 532 309 582 m 72 -170 q 104 112 72 -75 q 149 326 136 298 q 187 354 161 354 q 226 331 216 354 q 270 131 236 307 q 304 -170 304 -45 q 187 -319 304 -319 q 72 -170 72 -319 z "},"¬":{"ha":811,"x_min":58,"x_max":751,"o":"m 574 161 l 574 457 l 58 457 l 58 635 l 751 635 l 751 161 l 574 161 z "},"√":{"ha":762,"x_min":14,"x_max":715,"o":"m 715 1267 l 507 -53 l 170 644 l 36 579 l 14 625 l 216 725 l 490 165 l 667 1274 l 715 1267 z "},"ƒ":{"ha":766,"x_min":-14,"x_max":775,"o":"m 187 576 l 212 720 l 349 720 l 370 835 q 438 972 387 933 q 590 1011 490 1011 l 596 1011 q 775 983 688 1011 l 737 831 q 631 848 675 848 q 574 832 592 848 q 541 720 555 815 l 681 720 l 656 576 l 517 576 l 399 -97 q 328 -250 380 -208 q 176 -292 277 -292 q -14 -265 76 -292 l 25 -115 q 140 -129 91 -129 q 199 -103 186 -129 q 222 -16 212 -77 l 323 576 l 187 576 z "},"≈":{"ha":811,"x_min":22,"x_max":787,"o":"m 22 502 l 22 684 q 244 784 142 784 q 418 730 302 784 q 585 675 535 675 q 787 779 669 675 l 787 598 q 683 527 745 556 q 568 498 621 498 q 391 553 511 498 q 233 608 272 608 q 22 502 146 608 m 22 201 l 22 383 q 244 483 142 483 q 418 429 302 483 q 585 374 535 374 q 787 477 669 374 l 787 297 q 683 226 745 255 q 568 197 621 197 q 391 252 511 197 q 233 307 272 307 q 22 201 146 307 z "},"∆":{"ha":850,"x_min":8,"x_max":844,"o":"m 453 956 l 844 0 l 8 0 l 453 956 m 403 718 l 100 68 l 672 68 l 403 718 z "},"«":{"ha":825,"x_min":12,"x_max":810,"o":"m 589 318 l 810 9 l 611 9 l 387 318 l 611 627 l 810 627 l 589 318 m 214 318 l 435 9 l 236 9 l 12 318 l 236 627 l 435 627 l 214 318 z "},"»":{"ha":825,"x_min":17,"x_max":811,"o":"m 610 318 l 389 627 l 587 627 l 811 318 l 587 9 l 389 9 l 610 318 m 237 318 l 17 627 l 215 627 l 439 318 l 215 9 l 17 9 l 237 318 z "},"…":{"ha":1389,"x_min":111,"x_max":1278,"o":"m 1036 109 q 1072 194 1036 158 q 1157 229 1107 229 q 1242 194 1206 229 q 1278 109 1278 158 q 1242 23 1278 58 q 1157 -12 1206 -12 q 1072 23 1107 -12 q 1036 109 1036 58 m 574 109 q 609 194 574 158 q 694 229 645 229 q 780 194 744 229 q 815 109 815 158 q 780 23 815 58 q 694 -12 744 -12 q 609 23 645 -12 q 574 109 574 58 m 111 109 q 147 194 111 158 q 232 229 182 229 q 317 194 281 229 q 353 109 353 158 q 317 23 353 58 q 232 -12 281 -12 q 147 23 182 -12 q 111 109 111 58 z "}," ":{"ha":386,"x_min":0,"x_max":0,"o":""},"À":{"ha":1084,"x_min":4,"x_max":1080,"o":"m 660 947 l 1080 0 l 827 0 l 749 187 l 325 187 l 254 0 l 4 0 l 386 947 l 660 947 m 679 353 l 526 721 l 387 353 l 679 353 m 322 1242 l 551 1242 l 654 1039 l 551 1039 l 322 1242 z "},"Ã":{"ha":1084,"x_min":4,"x_max":1080,"o":"m 660 947 l 1080 0 l 827 0 l 749 187 l 325 187 l 254 0 l 4 0 l 386 947 l 660 947 m 679 353 l 526 721 l 387 353 l 679 353 m 718 1235 l 812 1235 q 650 1025 798 1025 q 530 1063 608 1025 q 427 1101 453 1101 q 364 1028 374 1101 l 273 1028 q 324 1181 280 1128 q 437 1235 368 1235 q 556 1198 482 1235 q 657 1160 629 1160 q 718 1235 706 1160 z "},"Õ":{"ha":1215,"x_min":65,"x_max":1150,"o":"m 608 960 q 1000 813 850 960 q 1150 473 1150 667 q 998 132 1150 277 q 608 -12 846 -12 q 216 132 368 -12 q 65 473 65 275 q 215 814 65 668 q 608 960 366 960 m 608 184 q 825 264 743 184 q 907 473 907 344 q 825 683 907 604 q 608 762 743 762 q 391 683 473 762 q 309 473 309 604 q 391 264 309 344 q 608 184 473 184 m 783 1235 l 878 1235 q 715 1025 863 1025 q 595 1063 673 1025 q 492 1101 518 1101 q 429 1028 439 1101 l 338 1028 q 389 1181 345 1128 q 503 1235 433 1235 q 621 1198 547 1235 q 722 1160 694 1160 q 783 1235 771 1160 z "},"Œ":{"ha":1520,"x_min":65,"x_max":1446,"o":"m 1436 947 l 1436 774 l 993 774 l 993 575 l 1417 575 l 1417 401 l 993 401 l 993 174 l 1446 174 l 1446 0 l 595 0 q 210 128 355 0 q 65 476 65 256 q 208 819 65 691 q 593 947 350 947 l 1436 947 m 757 774 l 643 774 q 400 688 491 774 q 309 473 309 602 q 400 259 309 345 q 643 174 492 174 l 757 174 l 757 774 z "},"œ":{"ha":1215,"x_min":50,"x_max":1180,"o":"m 1162 207 l 1162 69 q 909 -12 1042 -12 q 661 69 775 -12 q 412 -12 549 -12 q 155 84 259 -12 q 50 323 50 180 q 154 559 50 465 q 415 653 258 653 q 652 576 541 653 q 741 635 701 616 q 844 653 781 653 q 1086 555 992 653 q 1174 289 1180 456 l 761 289 q 807 158 758 209 q 930 107 857 107 q 1162 207 1055 107 m 761 395 l 989 395 q 957 494 989 454 q 871 533 924 533 q 791 495 822 533 q 761 395 761 457 m 412 107 q 559 334 559 107 q 520 481 559 429 q 410 533 481 533 q 265 318 265 533 q 412 107 265 107 z "},"–":{"ha":694,"x_min":-8,"x_max":703,"o":"m 703 412 l 703 229 l -8 229 l -8 412 l 703 412 z "},"—":{"ha":1389,"x_min":-8,"x_max":1397,"o":"m 1397 412 l 1397 229 l -8 229 l -8 412 l 1397 412 z "},"“":{"ha":782,"x_min":79,"x_max":718,"o":"m 710 960 l 710 917 q 646 760 646 855 q 647 737 646 749 q 718 636 718 710 q 686 557 718 589 q 604 526 653 526 q 504 571 543 526 q 465 685 465 615 q 534 866 465 785 q 710 960 603 947 m 323 960 l 323 917 q 260 760 260 855 q 261 737 260 749 q 332 636 332 710 q 299 557 332 589 q 218 526 267 526 q 118 571 157 526 q 79 685 79 615 q 148 866 79 785 q 323 960 217 947 z "},"”":{"ha":782,"x_min":64,"x_max":703,"o":"m 458 526 l 458 570 q 522 726 522 631 q 521 749 522 738 q 450 850 450 776 q 483 928 450 897 q 564 960 515 960 q 664 916 625 960 q 703 802 703 871 q 634 620 703 701 q 458 526 565 539 m 72 526 l 72 570 q 136 726 136 631 q 135 749 136 738 q 64 850 64 776 q 96 928 64 897 q 178 960 129 960 q 278 916 239 960 q 317 802 317 871 q 248 620 317 701 q 72 526 179 539 z "},"‘":{"ha":376,"x_min":62,"x_max":315,"o":"m 307 960 l 307 917 q 243 760 243 855 q 244 737 243 749 q 315 636 315 710 q 283 557 315 589 q 201 526 250 526 q 101 571 140 526 q 62 685 62 615 q 131 866 62 785 q 307 960 200 947 z "},"’":{"ha":376,"x_min":61,"x_max":314,"o":"m 69 526 l 69 570 q 134 726 134 631 q 132 749 134 738 q 61 850 61 776 q 94 928 61 897 q 175 960 126 960 q 275 916 236 960 q 314 802 314 871 q 245 620 314 701 q 69 526 176 539 z "},"÷":{"ha":811,"x_min":58,"x_max":753,"o":"m 304 764 q 334 836 304 806 q 406 865 364 865 q 477 836 447 865 q 507 764 507 806 q 477 692 507 722 q 406 663 447 663 q 334 692 364 663 q 304 764 304 722 m 58 401 l 58 579 l 753 579 l 753 401 l 58 401 m 304 216 q 334 288 304 258 q 406 318 364 318 q 477 288 447 318 q 507 216 507 258 q 477 145 507 175 q 406 115 447 115 q 334 145 364 115 q 304 216 304 175 z "},"◊":{"ha":686,"x_min":31,"x_max":652,"o":"m 652 517 l 383 0 l 300 0 l 31 517 l 300 1035 l 383 1035 l 652 517 m 569 517 l 342 960 l 115 517 l 342 75 l 569 517 z "},"ÿ":{"ha":708,"x_min":1,"x_max":707,"o":"m 707 640 l 278 -307 l 64 -307 l 252 104 l 1 640 l 216 640 l 351 311 l 496 640 l 707 640 m 516 957 q 595 925 563 957 q 627 846 627 892 q 595 767 627 800 q 516 734 564 734 q 438 767 470 734 q 406 846 406 800 q 438 925 406 892 q 516 957 470 957 m 193 957 q 272 925 239 958 q 304 846 304 892 q 272 767 304 800 q 193 734 240 734 q 114 767 146 734 q 82 846 82 800 q 114 925 82 892 q 193 957 146 957 z "},"Ÿ":{"ha":983,"x_min":0,"x_max":983,"o":"m 374 0 l 374 443 l 0 947 l 286 947 l 492 650 l 699 947 l 983 947 l 610 443 l 610 0 l 374 0 m 654 1260 q 733 1228 701 1260 q 765 1149 765 1196 q 733 1070 765 1103 q 654 1038 701 1038 q 575 1070 608 1038 q 543 1149 543 1103 q 575 1228 543 1196 q 654 1260 608 1260 m 330 1260 q 409 1228 377 1261 q 441 1149 441 1196 q 410 1070 441 1103 q 330 1038 378 1038 q 252 1070 284 1038 q 220 1149 220 1103 q 252 1228 220 1196 q 330 1260 284 1260 z "},"€":{"ha":871,"x_min":22,"x_max":790,"o":"m 359 633 l 730 633 l 708 519 l 334 519 q 332 477 332 498 q 334 431 332 457 l 697 431 l 675 317 l 355 317 q 432 202 387 239 q 553 165 477 165 q 650 181 602 165 q 774 231 699 196 l 774 49 q 522 -12 639 -12 q 275 74 374 -12 q 139 317 176 159 l 22 317 l 45 431 l 123 431 q 125 519 123 498 l 22 519 l 45 633 l 143 633 q 293 874 185 788 q 559 960 400 960 q 790 930 658 960 l 761 754 q 574 782 654 782 q 359 633 414 782 z "},"‹":{"ha":449,"x_min":12,"x_max":435,"o":"m 214 318 l 435 9 l 236 9 l 12 318 l 236 627 l 435 627 l 214 318 z "},"›":{"ha":449,"x_min":14,"x_max":436,"o":"m 235 318 l 14 627 l 212 627 l 436 318 l 212 9 l 14 9 l 235 318 z "},"ﬁ":{"ha":825,"x_min":28,"x_max":747,"o":"m 488 789 q 437 793 458 793 q 342 763 370 793 q 314 640 314 734 l 443 640 l 443 503 l 314 503 l 314 0 l 113 0 l 113 503 l 28 503 l 28 640 l 113 640 q 397 960 113 960 q 488 947 448 960 l 488 789 m 529 851 q 562 928 529 896 q 639 960 594 960 q 715 928 684 960 q 747 851 747 896 q 715 774 747 806 q 639 742 684 742 q 562 774 594 742 q 529 851 529 807 m 739 640 l 739 0 l 538 0 l 538 640 l 739 640 z "},"ﬂ":{"ha":825,"x_min":29,"x_max":739,"o":"m 443 640 l 443 503 l 314 503 l 314 0 l 113 0 l 113 503 l 29 503 l 29 640 l 113 640 q 397 960 113 960 q 488 947 448 960 l 488 789 q 437 793 458 793 q 342 763 370 793 q 314 640 314 734 l 443 640 m 739 947 l 739 0 l 538 0 l 538 947 l 739 947 z "},"‡":{"ha":708,"x_min":35,"x_max":673,"o":"m 618 98 q 635 101 627 101 q 673 12 673 101 q 646 -82 673 -82 q 629 -79 642 -82 l 389 -25 l 446 -264 q 448 -281 448 -274 q 354 -319 448 -319 q 260 -281 260 -319 q 262 -264 260 -274 l 318 -25 l 79 -79 q 64 -81 70 -81 q 41 -61 47 -81 q 35 17 35 -41 q 73 101 35 101 q 90 98 81 101 l 318 45 l 262 321 l 318 596 l 90 542 q 71 538 79 538 q 35 631 35 538 q 68 722 35 730 l 318 665 l 262 904 q 260 922 260 914 q 354 960 260 960 q 449 922 449 960 q 447 908 449 915 l 389 665 l 629 720 q 645 722 640 722 q 673 625 673 722 q 635 539 673 539 q 618 542 628 539 l 389 596 l 446 321 l 389 45 l 618 98 z "},"∙":{"ha":376,"x_min":66,"x_max":309,"o":"m 66 479 q 102 565 66 529 q 187 600 138 600 q 273 565 237 600 q 309 479 309 529 q 273 394 309 429 q 187 358 237 358 q 102 394 138 358 q 66 479 66 429 z "},"‚":{"ha":376,"x_min":61,"x_max":314,"o":"m 69 -235 l 69 -192 q 134 -35 134 -130 q 132 -12 134 -24 q 61 89 61 15 q 94 168 61 136 q 175 199 126 199 q 275 154 236 199 q 314 40 314 110 q 245 -141 314 -60 q 69 -235 176 -222 z "},"„":{"ha":782,"x_min":71,"x_max":711,"o":"m 467 -235 l 467 -192 q 530 -35 530 -130 q 529 -12 530 -24 q 458 89 458 15 q 491 168 458 136 q 572 199 523 199 q 672 154 633 199 q 711 40 711 110 q 642 -141 711 -60 q 467 -235 573 -222 m 79 -235 l 79 -192 q 143 -35 143 -130 q 142 -12 143 -24 q 71 89 71 15 q 103 168 71 136 q 184 199 136 199 q 284 154 245 199 q 323 40 323 110 q 255 -141 323 -60 q 79 -235 186 -222 z "},"‰":{"ha":1504,"x_min":31,"x_max":1474,"o":"m 254 960 q 412 895 347 960 q 478 736 478 829 q 412 578 478 644 q 254 513 346 513 q 96 578 162 513 q 31 736 31 644 q 96 895 31 829 q 254 960 161 960 m 254 632 q 324 662 296 632 q 353 736 353 692 q 323 809 353 779 q 254 840 294 840 q 184 810 212 840 q 155 736 155 781 q 185 663 155 694 q 254 632 214 632 m 884 960 l 221 -11 l 106 -11 l 772 960 l 884 960 m 1250 435 q 1408 369 1343 435 q 1474 211 1474 304 q 1408 54 1474 119 q 1250 -12 1342 -12 q 1092 54 1158 -12 q 1026 211 1026 119 q 1092 369 1026 304 q 1250 435 1158 435 m 1250 107 q 1320 137 1291 107 q 1349 211 1349 168 q 1320 284 1349 254 q 1250 315 1291 315 q 1180 286 1208 315 q 1152 211 1152 256 q 1181 138 1152 170 q 1250 107 1210 107 m 737 435 q 896 369 830 435 q 961 211 961 304 q 895 54 961 119 q 737 -12 829 -12 q 580 54 646 -12 q 514 211 514 119 q 579 369 514 304 q 737 435 645 435 m 737 107 q 807 137 779 107 q 836 211 836 168 q 807 284 836 254 q 737 315 778 315 q 667 286 696 315 q 639 211 639 256 q 668 138 639 170 q 737 107 698 107 z "},"Â":{"ha":1084,"x_min":4,"x_max":1080,"o":"m 660 947 l 1080 0 l 827 0 l 749 187 l 325 187 l 254 0 l 4 0 l 386 947 l 660 947 m 679 353 l 526 721 l 387 353 l 679 353 m 637 1272 l 775 1028 l 652 1028 l 543 1149 l 432 1028 l 310 1028 l 448 1272 l 637 1272 z "},"Ê":{"ha":882,"x_min":109,"x_max":807,"o":"m 807 174 l 807 0 l 109 0 l 109 947 l 798 947 l 798 774 l 345 774 l 345 575 l 777 575 l 777 401 l 345 401 l 345 174 l 807 174 m 536 1272 l 673 1028 l 550 1028 l 441 1149 l 330 1028 l 208 1028 l 346 1272 l 536 1272 z "},"Á":{"ha":1084,"x_min":4,"x_max":1080,"o":"m 660 947 l 1080 0 l 827 0 l 749 187 l 325 187 l 254 0 l 4 0 l 386 947 l 660 947 m 679 353 l 526 721 l 387 353 l 679 353 m 764 1242 l 535 1039 l 432 1039 l 535 1242 l 764 1242 z "},"Ë":{"ha":882,"x_min":109,"x_max":807,"o":"m 807 174 l 807 0 l 109 0 l 109 947 l 798 947 l 798 774 l 345 774 l 345 575 l 777 575 l 777 401 l 345 401 l 345 174 l 807 174 m 602 1260 q 681 1228 649 1260 q 713 1149 713 1196 q 682 1070 713 1103 q 602 1038 650 1038 q 524 1070 556 1038 q 492 1149 492 1103 q 524 1228 492 1196 q 602 1260 556 1260 m 279 1260 q 358 1228 326 1261 q 390 1149 390 1196 q 358 1070 390 1103 q 279 1038 326 1038 q 200 1070 233 1038 q 168 1149 168 1103 q 200 1228 168 1196 q 279 1260 233 1260 z "},"È":{"ha":882,"x_min":109,"x_max":807,"o":"m 807 174 l 807 0 l 109 0 l 109 947 l 798 947 l 798 774 l 345 774 l 345 575 l 777 575 l 777 401 l 345 401 l 345 174 l 807 174 m 221 1242 l 450 1242 l 553 1039 l 450 1039 l 221 1242 z "},"Í":{"ha":463,"x_min":114,"x_max":453,"o":"m 350 947 l 350 0 l 114 0 l 114 947 l 350 947 m 453 1242 l 224 1039 l 121 1039 l 224 1242 l 453 1242 z "},"Î":{"ha":463,"x_min":-1,"x_max":464,"o":"m 350 947 l 350 0 l 114 0 l 114 947 l 350 947 m 326 1272 l 464 1028 l 340 1028 l 232 1149 l 121 1028 l -1 1028 l 136 1272 l 326 1272 z "},"Ï":{"ha":463,"x_min":-41,"x_max":504,"o":"m 350 947 l 350 0 l 114 0 l 114 947 l 350 947 m 393 1260 q 472 1228 439 1260 q 504 1149 504 1196 q 472 1070 504 1103 q 393 1038 440 1038 q 314 1070 347 1038 q 282 1149 282 1103 q 314 1228 282 1196 q 393 1260 347 1260 m 69 1260 q 148 1228 116 1261 q 180 1149 180 1196 q 149 1070 180 1103 q 69 1038 117 1038 q -9 1070 23 1038 q -41 1149 -41 1103 q -9 1228 -41 1196 q 69 1260 23 1260 z "},"Ì":{"ha":463,"x_min":11,"x_max":350,"o":"m 350 947 l 350 0 l 114 0 l 114 947 l 350 947 m 11 1242 l 240 1242 l 343 1039 l 240 1039 l 11 1242 z "},"Ó":{"ha":1215,"x_min":65,"x_max":1150,"o":"m 608 960 q 1000 813 850 960 q 1150 473 1150 667 q 998 132 1150 277 q 608 -12 846 -12 q 216 132 368 -12 q 65 473 65 275 q 215 814 65 668 q 608 960 366 960 m 608 184 q 825 264 743 184 q 907 473 907 344 q 825 683 907 604 q 608 762 743 762 q 391 683 473 762 q 309 473 309 604 q 391 264 309 344 q 608 184 473 184 m 829 1242 l 600 1039 l 497 1039 l 600 1242 l 829 1242 z "},"Ô":{"ha":1215,"x_min":65,"x_max":1150,"o":"m 608 960 q 1000 813 850 960 q 1150 473 1150 667 q 998 132 1150 277 q 608 -12 846 -12 q 216 132 368 -12 q 65 473 65 275 q 215 814 65 668 q 608 960 366 960 m 608 184 q 825 264 743 184 q 907 473 907 344 q 825 683 907 604 q 608 762 743 762 q 391 683 473 762 q 309 473 309 604 q 391 264 309 344 q 608 184 473 184 m 703 1272 l 840 1028 l 717 1028 l 608 1149 l 497 1028 l 375 1028 l 513 1272 l 703 1272 z "},"Ò":{"ha":1215,"x_min":65,"x_max":1150,"o":"m 608 960 q 1000 813 850 960 q 1150 473 1150 667 q 998 132 1150 277 q 608 -12 846 -12 q 216 132 368 -12 q 65 473 65 275 q 215 814 65 668 q 608 960 366 960 m 608 184 q 825 264 743 184 q 907 473 907 344 q 825 683 907 604 q 608 762 743 762 q 391 683 473 762 q 309 473 309 604 q 391 264 309 344 q 608 184 473 184 m 387 1242 l 616 1242 l 720 1039 l 616 1039 l 387 1242 z "},"Ú":{"ha":1143,"x_min":97,"x_max":1044,"o":"m 808 947 l 1044 947 l 1044 410 q 922 95 1044 202 q 571 -12 799 -12 q 221 96 346 -12 q 97 408 97 205 l 97 947 l 334 947 l 334 403 q 398 244 334 304 q 568 184 463 184 q 743 245 677 184 q 808 419 808 307 l 808 947 m 793 1242 l 564 1039 l 461 1039 l 564 1242 l 793 1242 z "},"Û":{"ha":1143,"x_min":97,"x_max":1044,"o":"m 808 947 l 1044 947 l 1044 410 q 922 95 1044 202 q 571 -12 799 -12 q 221 96 346 -12 q 97 408 97 205 l 97 947 l 334 947 l 334 403 q 398 244 334 304 q 568 184 463 184 q 743 245 677 184 q 808 419 808 307 l 808 947 m 667 1272 l 804 1028 l 681 1028 l 572 1149 l 461 1028 l 339 1028 l 477 1272 l 667 1272 z "},"Ù":{"ha":1143,"x_min":97,"x_max":1044,"o":"m 808 947 l 1044 947 l 1044 410 q 922 95 1044 202 q 571 -12 799 -12 q 221 96 346 -12 q 97 408 97 205 l 97 947 l 334 947 l 334 403 q 398 244 334 304 q 568 184 463 184 q 743 245 677 184 q 808 419 808 307 l 808 947 m 351 1242 l 581 1242 l 684 1039 l 581 1039 l 351 1242 z "},"ı":{"ha":376,"x_min":87,"x_max":289,"o":"m 289 640 l 289 0 l 87 0 l 87 640 l 289 640 z "},"ˆ":{"ha":463,"x_min":-1,"x_max":464,"o":"m 326 968 l 464 725 l 340 725 l 232 846 l 121 725 l -1 725 l 136 968 l 326 968 z "},"˜":{"ha":463,"x_min":-39,"x_max":501,"o":"m 407 932 l 501 932 q 339 722 487 722 q 219 760 296 722 q 115 798 142 798 q 53 725 62 798 l -39 725 q 13 878 -31 825 q 126 932 57 932 q 244 895 171 932 q 346 857 318 857 q 407 932 395 857 z "},"ˉ":{"ha":463,"x_min":-37,"x_max":500,"o":"m 500 893 l 500 758 l -37 758 l -37 893 l 500 893 z "},"˘":{"ha":463,"x_min":-22,"x_max":485,"o":"m 347 1002 l 485 1002 q 403 836 475 908 q 235 764 332 764 q 70 825 138 764 q -22 1002 1 887 l 117 1002 q 231 916 145 916 q 347 1002 323 916 z "},"˙":{"ha":463,"x_min":121,"x_max":343,"o":"m 232 957 q 311 925 279 957 q 343 846 343 892 q 311 767 343 800 q 232 734 279 734 q 154 767 186 734 q 121 846 121 800 q 154 925 121 892 q 232 957 186 957 z "},"˚":{"ha":463,"x_min":90,"x_max":372,"o":"m 90 847 q 132 946 90 905 q 232 987 174 987 q 331 946 290 987 q 372 847 372 905 q 331 747 372 789 q 232 705 290 705 q 132 747 174 705 q 90 847 90 789 m 309 847 q 286 900 309 878 q 232 922 263 922 q 179 900 201 922 q 157 847 157 878 q 179 793 157 816 q 232 771 201 771 q 286 793 263 771 q 309 847 309 816 z "},"¸":{"ha":463,"x_min":139,"x_max":393,"o":"m 325 11 l 307 -32 q 393 -134 393 -63 q 353 -217 393 -186 q 241 -249 313 -249 q 139 -236 174 -249 l 139 -165 q 244 -122 244 -169 q 187 -83 244 -83 l 241 11 l 325 11 z "},"˝":{"ha":463,"x_min":-14,"x_max":525,"o":"m 525 939 l 343 736 l 244 736 l 317 939 l 525 939 m 267 939 l 85 736 l -14 736 l 58 939 l 267 939 z "},"˛":{"ha":463,"x_min":104,"x_max":353,"o":"m 353 -129 l 353 -240 q 245 -261 302 -261 q 142 -219 180 -261 q 104 -104 104 -177 q 139 12 104 -39 l 249 12 q 227 -65 227 -39 q 248 -120 227 -98 q 300 -142 269 -142 q 353 -129 315 -142 z "},"ˇ":{"ha":463,"x_min":-1,"x_max":464,"o":"m 136 725 l -1 968 l 122 968 l 231 848 l 342 968 l 464 968 l 326 725 l 136 725 z "},"Š":{"ha":839,"x_min":66,"x_max":791,"o":"m 749 886 l 749 701 q 448 786 560 786 q 347 765 385 786 q 309 708 309 743 q 336 656 309 681 q 469 593 363 632 q 637 522 574 555 q 746 428 700 488 q 791 275 791 368 q 691 66 791 144 q 428 -12 591 -12 q 86 79 252 -12 l 86 283 q 254 191 181 220 q 410 161 328 161 q 549 249 549 161 q 521 305 549 279 q 387 370 493 332 q 219 440 281 408 q 112 533 157 473 q 66 688 66 593 q 165 885 66 810 q 428 960 263 960 q 749 886 580 960 m 326 1028 l 188 1272 l 311 1272 l 420 1151 l 531 1272 l 653 1272 l 515 1028 l 326 1028 z "},"š":{"ha":593,"x_min":52,"x_max":555,"o":"m 524 606 l 524 463 q 310 533 408 533 q 237 484 237 533 q 253 458 237 471 q 370 405 268 446 q 513 312 471 365 q 555 196 555 259 q 488 42 555 96 q 294 -12 420 -12 q 65 35 165 -12 l 65 176 q 272 122 189 122 q 370 170 370 122 q 352 204 370 188 q 231 260 334 220 q 90 349 127 300 q 52 456 52 397 q 124 598 52 543 q 317 653 197 653 q 524 606 431 653 m 201 725 l 64 968 l 187 968 l 296 848 l 407 968 l 529 968 l 391 725 l 201 725 z "},"¦":{"ha":390,"x_min":119,"x_max":271,"o":"m 119 475 l 119 947 l 271 947 l 271 475 l 119 475 m 119 -307 l 119 244 l 271 244 l 271 -307 l 119 -307 z "},"­":{"ha":463,"x_min":51,"x_max":412,"o":"m 412 414 l 412 229 l 51 229 l 51 414 l 412 414 z "},"¯":{"ha":694,"x_min":-8,"x_max":703,"o":"m -8 1085 l 703 1085 l 703 1016 l -8 1016 l -8 1085 z "},"Ð":{"ha":1114,"x_min":-11,"x_max":1046,"o":"m 104 947 l 522 947 q 905 815 764 947 q 1046 472 1046 682 q 903 126 1046 252 q 496 0 760 0 l 104 0 l 104 411 l -11 411 l -11 538 l 104 538 l 104 947 m 340 774 l 340 538 l 551 538 l 551 411 l 340 411 l 340 174 l 494 174 q 724 256 644 174 q 803 473 803 338 q 723 693 803 613 q 492 774 642 774 l 340 774 z "},"ð":{"ha":854,"x_min":64,"x_max":786,"o":"m 745 873 l 606 825 q 786 375 786 644 q 683 87 786 186 q 427 -12 580 -12 q 165 80 267 -12 q 64 321 64 173 q 157 556 64 460 q 386 653 251 653 q 541 603 467 653 l 543 604 q 424 760 517 673 l 222 689 l 192 772 l 345 827 q 272 871 304 856 l 399 960 q 524 892 470 930 l 714 960 l 745 873 m 427 107 q 571 325 571 107 q 427 533 571 533 q 318 478 357 533 q 279 321 279 423 q 427 107 279 107 z "},"Ý":{"ha":983,"x_min":0,"x_max":983,"o":"m 374 0 l 374 443 l 0 947 l 286 947 l 492 650 l 699 947 l 983 947 l 610 443 l 610 0 l 374 0 m 714 1242 l 485 1039 l 382 1039 l 485 1242 l 714 1242 z "},"ý":{"ha":708,"x_min":1,"x_max":707,"o":"m 707 640 l 278 -307 l 64 -307 l 252 104 l 1 640 l 216 640 l 351 311 l 496 640 l 707 640 m 576 939 l 347 736 l 244 736 l 347 939 l 576 939 z "},"Þ":{"ha":911,"x_min":115,"x_max":851,"o":"m 115 947 l 351 947 l 351 757 l 538 757 q 766 673 681 757 q 851 476 851 590 q 767 274 851 358 q 539 191 684 191 l 351 191 l 351 0 l 115 0 l 115 947 m 351 583 l 351 364 l 461 364 q 608 473 608 364 q 569 559 608 535 q 435 583 530 583 l 351 583 z "},"þ":{"ha":810,"x_min":79,"x_max":761,"o":"m 281 947 l 281 585 q 464 653 361 653 q 675 559 589 653 q 761 328 761 465 q 674 81 761 174 q 446 -12 588 -12 q 281 32 357 -12 l 281 -319 l 79 -319 l 79 947 l 281 947 m 281 458 l 281 164 q 397 122 338 122 q 514 175 471 122 q 557 317 557 227 q 517 459 557 408 q 406 510 477 510 q 281 458 345 510 z "},"×":{"ha":811,"x_min":75,"x_max":736,"o":"m 75 285 l 281 490 l 75 696 l 200 821 l 406 615 l 611 821 l 736 696 l 530 490 l 736 285 l 611 160 l 406 366 l 200 160 l 75 285 z "},"¹":{"ha":463,"x_min":160,"x_max":304,"o":"m 304 960 l 304 461 l 160 461 l 160 960 l 304 960 z "},"²":{"ha":463,"x_min":46,"x_max":432,"o":"m 432 567 l 432 461 l 46 461 l 46 479 q 214 682 166 612 q 262 799 262 752 q 243 845 262 827 q 196 864 224 864 q 53 793 136 864 l 53 911 q 216 960 140 960 q 353 922 303 960 q 403 819 403 884 q 256 567 403 734 l 432 567 z "},"³":{"ha":463,"x_min":45,"x_max":397,"o":"m 164 669 l 164 762 q 240 818 240 770 q 220 856 240 841 q 168 871 200 871 q 58 840 123 871 l 58 936 q 195 960 119 960 q 330 925 277 960 q 382 838 382 891 q 302 725 382 766 q 397 602 397 688 q 339 495 397 536 q 187 454 281 454 q 45 488 125 454 l 45 593 q 174 549 115 549 q 229 564 208 549 q 250 606 250 580 q 164 669 250 663 z "},"½":{"ha":1244,"x_min":140,"x_max":1132,"o":"m 935 960 l 271 -37 l 140 -37 l 804 960 l 935 960 m 309 960 l 309 461 l 164 461 l 164 960 l 309 960 m 1132 106 l 1132 0 l 746 0 l 746 18 q 914 221 866 151 q 962 338 962 291 q 944 384 962 366 q 896 403 925 403 q 753 332 836 403 l 753 450 q 917 498 840 498 q 1053 460 1003 498 q 1103 358 1103 422 q 956 106 1103 273 l 1132 106 z "},"¼":{"ha":1244,"x_min":140,"x_max":1059,"o":"m 309 960 l 309 461 l 164 461 l 164 960 l 309 960 m 935 960 l 271 -37 l 140 -37 l 804 960 l 935 960 m 1019 500 l 1019 205 l 1059 205 l 1059 119 l 1019 119 l 1019 0 l 879 0 l 879 119 l 663 119 l 663 201 l 929 500 l 1019 500 m 879 314 l 781 205 l 879 205 l 879 314 z "},"¾":{"ha":1244,"x_min":49,"x_max":1090,"o":"m 168 669 l 168 762 q 244 818 244 770 q 224 856 244 841 q 172 871 204 871 q 62 840 127 871 l 62 936 q 199 960 123 960 q 334 925 281 960 q 386 838 386 891 q 307 725 386 766 q 401 602 401 688 q 343 495 401 536 q 192 454 286 454 q 49 488 130 454 l 49 593 q 178 549 119 549 q 233 564 212 549 q 254 606 254 580 q 168 669 254 663 m 966 960 l 302 -37 l 172 -37 l 836 960 l 966 960 m 1051 500 l 1051 205 l 1090 205 l 1090 119 l 1051 119 l 1051 0 l 911 0 l 911 119 l 694 119 l 694 201 l 961 500 l 1051 500 m 911 314 l 812 205 l 911 205 l 911 314 z "},"·":{"ha":463,"x_min":386,"x_max":609,"o":"m 609 481 q 576 403 609 436 q 498 370 544 370 q 419 403 452 370 q 386 481 386 435 q 419 561 386 528 q 498 593 452 593 q 576 561 543 593 q 609 481 609 528 z "},"⁄":{"ha":304,"x_min":-245,"x_max":549,"o":"m 549 960 l -115 -37 l -245 -37 l 419 960 l 549 960 z "},"":{"ha":825,"x_min":28,"x_max":747,"o":"m 488 789 q 437 793 458 793 q 342 763 370 793 q 314 640 314 734 l 443 640 l 443 503 l 314 503 l 314 0 l 113 0 l 113 503 l 28 503 l 28 640 l 113 640 q 397 960 113 960 q 488 947 448 960 l 488 789 m 529 851 q 562 928 529 896 q 639 960 594 960 q 715 928 684 960 q 747 851 747 896 q 715 774 747 806 q 639 742 684 742 q 562 774 594 742 q 529 851 529 807 m 739 640 l 739 0 l 538 0 l 538 640 l 739 640 z "},"":{"ha":825,"x_min":29,"x_max":739,"o":"m 443 640 l 443 503 l 314 503 l 314 0 l 113 0 l 113 503 l 29 503 l 29 640 l 113 640 q 397 960 113 960 q 488 947 448 960 l 488 789 q 437 793 458 793 q 342 763 370 793 q 314 640 314 734 l 443 640 m 739 947 l 739 0 l 538 0 l 538 947 l 739 947 z "},"¤":{"ha":766,"x_min":31,"x_max":737,"o":"m 529 212 q 383 174 465 174 q 239 211 303 174 l 149 121 l 31 239 l 121 329 q 83 475 83 390 q 121 621 83 551 l 31 711 l 146 827 l 235 737 q 383 775 314 775 q 529 737 461 775 l 619 828 l 737 710 l 647 619 q 685 475 685 553 q 646 326 685 401 l 736 236 l 621 121 l 529 212 m 522 475 q 481 572 522 532 q 383 612 441 612 q 286 572 326 612 q 245 475 245 532 q 286 377 245 418 q 383 336 326 336 q 481 377 440 336 q 522 475 522 418 z "}}}
